<svg xmlns="http://www.w3.org/2000/svg" viewBox="0 0 704.44 316.49"><title>Asset 1</title><g id="Layer_2" data-name="Layer 2"><g id="Layer_1-2" data-name="Layer 1"><path d="M145,30.07c-1.82,2.19-3.28,4.56-5.28,6.38a4.21,4.21,0,0,0-1.09,1.46,11.33,11.33,0,0,0-3.47,2.55v-.18l-.54.54a3.89,3.89,0,0,1-.91.55h.91a15.4,15.4,0,0,1-4,2.55,4,4,0,0,1,.54-.91l-.54-.55h.54v-.54l-.54.54c-.91.55-2,1.1-3.1,1.64a15.68,15.68,0,0,1-5.1,2c-1.28.36-1.64-.18-2-1.46a2.8,2.8,0,0,1,1.09-2.55l4-2.73a29.1,29.1,0,0,0,3.1-2c4.56-3.1,8-7.11,11.48-11.3a11.07,11.07,0,0,0,2-3.1,1.48,1.48,0,0,0-.55-1.82,11.21,11.21,0,0,0-3.28-1.64,34.7,34.7,0,0,0-8.56-1.27c-6.93-.37-13.67.72-20.42,2.18-6.74,1.64-13.3,3.65-19.86,5.83C86,27.52,82.5,29,79,30.44a134.17,134.17,0,0,0-13.49,6.92A60.27,60.27,0,0,0,59,41.92a21,21,0,0,1-6,3.82,11.09,11.09,0,0,0-4.38,4.74h.55a1.09,1.09,0,0,1-1.09.55,17.3,17.3,0,0,0-5.65,7.84c-.19.73-.55,1.45.18,2.18a9.83,9.83,0,0,0-1.28,6,4.37,4.37,0,0,0,1.1,2.73,34.94,34.94,0,0,0,4,3.46,72.46,72.46,0,0,0,9.66,6.38l12.57,7.29a162,162,0,0,1,19,12.4,63.27,63.27,0,0,1,13.66,14.21,64.22,64.22,0,0,1,7.48,17c.73,3.28.73,3.28,3.64,4.38a79.31,79.31,0,0,1,8.93,4.37,39.6,39.6,0,0,1,7.84,5.83,18.78,18.78,0,0,1,4.74,8,34.41,34.41,0,0,1,1.27,6.2,7.76,7.76,0,0,1-.54,3.46,4.3,4.3,0,0,1-4.92,2.37.67.67,0,0,1-.73-.73c.18-1.82,0-3.64.54-5.29l.55-1.27a2.71,2.71,0,0,0-.55-2.55,16,16,0,0,0-4-3.83,59.85,59.85,0,0,0-14-7.11,2,2,0,0,0-2.73,1.1A6.65,6.65,0,0,0,108,148a4.78,4.78,0,0,1-1.28,2.73c-.73.91-1.27,2-2,2.92a17.23,17.23,0,0,1-3.1,4.37c-.18.18-.37.55,0,.73.18.36.55,0,.73,0A11.15,11.15,0,0,1,98,163.11a11.07,11.07,0,0,1-3.28,3.83A110.56,110.56,0,0,1,71.2,182.25l-6.56,3.28a132.64,132.64,0,0,1-14.21,5.29,32.43,32.43,0,0,0-3.83,1.64,53.94,53.94,0,0,0-5.47.73,49.17,49.17,0,0,1-17.86.91,28.33,28.33,0,0,1-16.58-7.47,20.29,20.29,0,0,1-5.11-8.21A29.48,29.48,0,0,1,.12,171.5a22.08,22.08,0,0,1,3.29-13.85,36.68,36.68,0,0,1,11.48-12.21c2.55-1.64,4.92-3.65,7.65-5.29,2.92-1.82,6-3.28,8.93-4.92l1.46-.55a26.57,26.57,0,0,0,7.47-2.91,6.72,6.72,0,0,1,3.1-.91,11,11,0,0,0,2.19-.73,41.55,41.55,0,0,1,11.48-2.55c2.55-.37,5.28-.55,7.84-.73a80.77,80.77,0,0,1,18.77.36c2.37.37,4.74,1.09,7.11,1.46a51.9,51.9,0,0,1,9.29,2.19,6.27,6.27,0,0,0,2.55.36.9.9,0,0,0,.73-1.09,5.31,5.31,0,0,0-.36-1.64,20.71,20.71,0,0,0-2.74-6.2,51.05,51.05,0,0,0-11.84-13.12,123.11,123.11,0,0,0-14.4-9.66C68.47,96.05,63,93,57.35,89.67A69.74,69.74,0,0,1,42.77,79.1a23.63,23.63,0,0,1-7.11-14.58c-.73-8,2.19-14.58,6.93-20.42a47.37,47.37,0,0,1,8.2-7.83,7.94,7.94,0,0,0,1.82-1.64,20.82,20.82,0,0,1,4.19-2.74,56,56,0,0,0,5.65-3.46,77.56,77.56,0,0,1,12.22-6.38A113.82,113.82,0,0,1,85.6,17.5,9.26,9.26,0,0,1,87.79,17a29.39,29.39,0,0,0,5.65-2,6.36,6.36,0,0,1,1.64-.72c3.28-.73,6.56-1.64,10-2.56,1.46-.36,3.1-.54,4.56-.91a12.44,12.44,0,0,0,2.55-.36,4.74,4.74,0,0,1,2.73-.37,9.28,9.28,0,0,0,2.19-.36c.55,0,1.09-.37,1.82-.37a101.19,101.19,0,0,1,14.77-.36,27.28,27.28,0,0,1,3.64.91,8.92,8.92,0,0,0,2.37.91,8.68,8.68,0,0,1,5.1,4.38,18.48,18.48,0,0,1,2.37,8.2A8.23,8.23,0,0,1,145,30.07ZM98.91,140.15c-2.56-.55-5.11-.91-7.66-1.64a34.23,34.23,0,0,0-6-1.09l-4.74-.55a59.47,59.47,0,0,0-12.76-.55l-4.92.55A88.82,88.82,0,0,0,34,145.25,95,95,0,0,0,22.18,152a5.44,5.44,0,0,1-3.28,1.46,3.73,3.73,0,0,0-2.37,1.64c.54-.19.91-.55,1.64-.19a7.84,7.84,0,0,1-3.28,2.74,6.68,6.68,0,0,0-4,4c.18.54.18.54-.55.54a9.92,9.92,0,0,0-2.92,4.56A1.23,1.23,0,0,0,8,168.22H7.78a2.21,2.21,0,0,0-.73,1.46,10.57,10.57,0,0,1-.73,3.46,10,10,0,0,0,0,3.28,6.15,6.15,0,0,0,2.37,4,23.4,23.4,0,0,0,4.19,2.19A39,39,0,0,0,24,184.8c5.65.18,11.12,0,16.58-1.64.55,0,.92-.18,1.28-.18a17.5,17.5,0,0,0,6.2-1.82,9.81,9.81,0,0,1,2.18-.73A15.22,15.22,0,0,0,55,178.61a3.6,3.6,0,0,1,2.37-.73,8.13,8.13,0,0,0,5.1-1.64,38.3,38.3,0,0,1,5.11-3.1c2.73-1.46,5.65-2.92,8.2-4.56a99.54,99.54,0,0,0,12.57-9.11l2.92-2.73c4.19-3.28,7.11-7.66,9.66-12.22C102.37,141.79,102,141.06,98.91,140.15Zm-81.47,7.29c.18,0,.36.18.55.18a8.36,8.36,0,0,0,2.36-2l-1.27.55a9.49,9.49,0,0,0-1.46.91A.56.56,0,0,0,17.44,147.44Zm3.1-1.82a3.77,3.77,0,0,0,1.45-1.1A2.86,2.86,0,0,0,20.54,145.62Zm2.73-1.82A6.57,6.57,0,0,0,26.55,142a20.57,20.57,0,0,0,2.55-.91c2.92-1.46,6-2.73,8.93-4A4.32,4.32,0,0,0,40,136l2.37-.55c.18,0,.36-.18.54-.36.19-.37-.18-.37-.36-.55V134l-.18.19c.18.18.18.18.18.36A18.44,18.44,0,0,1,40,136H38c-.73.73-1.45.36-2.37.55-.73,0-1.09,1.45-2.18,1.45h-.37l-1.09.55-2,1.09v-.18c-1.09.91-2.73,1.28-3.46,2.55A4.64,4.64,0,0,0,23.27,143.8Zm62.15-8.75a83.62,83.62,0,0,0-27,.18A119.78,119.78,0,0,0,45,138.51a31.78,31.78,0,0,0-7.84,3.1c-.91.36-2,.91-3.1,1.27a35.81,35.81,0,0,0-5.46,2.37,1.85,1.85,0,0,0-1.1,1.83,18.27,18.27,0,0,0,5.11-2.19,20.78,20.78,0,0,1,2.73-1.64c3.28-1.09,6.56-2.37,9.84-3.46a81,81,0,0,1,14.58-3.47A107.62,107.62,0,0,1,73,135.23q6.82.27,13.66,1.09a119.3,119.3,0,0,1,14,2.92c.18,0,.54,0,.54-.18.19-.18-.18-.37-.36-.37A146.48,146.48,0,0,0,85.42,135.05Zm9.48,30.07a4.41,4.41,0,0,0-2,1.64,21.54,21.54,0,0,1-2,.91l-.55.55v-.55c-.18.18-.37.37-.37.55a16.49,16.49,0,0,0-3.46,2.18,63.66,63.66,0,0,1-12,7.66A109.68,109.68,0,0,1,63,183.71a99,99,0,0,1-27.7,8.2,7.88,7.88,0,0,0-2,.36c-.54.19-1.27-.18-1.64.55A53.9,53.9,0,0,0,45,191.36c12.76-3.09,24.42-8.56,35.54-15.31,1.82-1.09,3.64-2.36,5.65-3.46a25.9,25.9,0,0,0,6.74-5.83A2.64,2.64,0,0,0,94.9,165.12ZM43.14,186.26a22.58,22.58,0,0,0-2,1.09h-.55c-.18,0-.36.19-.18.19,0,.18.18,0,.18,0,.19,0,.37-.19.55-.19a29.46,29.46,0,0,0,5.83-.91A126.4,126.4,0,0,0,74.48,174.6a28.84,28.84,0,0,0,5.84-4.38A1.92,1.92,0,0,0,78,170L75,171.68a113.61,113.61,0,0,1-20.78,9.84,79,79,0,0,1-19.5,5.29,1.74,1.74,0,0,0-1.27.36c.18.37.54.37.91.37a20.34,20.34,0,0,0,3.28-.37A55.2,55.2,0,0,0,43.14,186.26Zm2-.36a6.55,6.55,0,0,0-2,.36l2-.55a9.53,9.53,0,0,0,2-.36Zm-.73-52.49c.37.18.91,0,1.1.36.72.73,1.45.55,2.36.18l1.1-.54h-.55c0-.18,0-.37.18-.37h.55v.55c1.64-.36,3.28-.55,4.92-.91A102.47,102.47,0,0,1,70.66,131H78a3.3,3.3,0,0,0,2.37-.55,71.27,71.27,0,0,1,10.93,1.28,6.6,6.6,0,0,0,1.82.36c.55,0,1.1.37,1.83-.18a1.51,1.51,0,0,1-1.1-.37c-4.92-.72-9.84-2-14.94-2.36a79.51,79.51,0,0,0-20.78.54c-3.83.73-7.84,1.64-11.66,2.74A19.43,19.43,0,0,0,44.41,133.41ZM48.6,184.8a12.49,12.49,0,0,1-1.45.55ZM53.16,132a10.07,10.07,0,0,1-4,1.09A6.39,6.39,0,0,1,53.16,132Zm-3.28-82H49.7l.18-.19Zm1.82,134c-.54.18-1.09.18-1.64.37A5.18,5.18,0,0,1,51.7,183.89Zm3.46-52.31a7.34,7.34,0,0,1-2,.37A3.56,3.56,0,0,1,55.16,131.58Zm.55,0h-.55c.19,0,.37-.18.55-.18h.55C56.08,131.4,55.89,131.58,55.71,131.58Zm1.46,50.31a4.34,4.34,0,0,0-1.46.36l1.46-.55a2.6,2.6,0,0,0,1.09-.36Zm5.1-51.4a33.73,33.73,0,0,1-6,.91A22.75,22.75,0,0,1,62.27,130.49Zm4-100.6a56.89,56.89,0,0,0,10.57-5.1,26.27,26.27,0,0,0-10.2,4.73c-.19,0-.19.19-.37.37-3.1.91-5.65,2.73-8.2,4.56-.36.18-.73.36-.36.72a.66.66,0,0,0,.54-.18c2.37-1.27,4.56-2.73,6.75-4A8,8,0,0,1,66.28,29.89Zm-6.56,150.9c-.55.19-.91.37-1.46.55ZM62.64,37.91c-1.46.54-2.55,1.46-1.83,1.27A2.67,2.67,0,0,0,62.64,37.91Zm-.91,142c-.37,0-.55.18-.92.37a3.77,3.77,0,0,1,.92-.55,4.09,4.09,0,0,0,1.45-.37Zm5.83-49.57c-1.64,0-3.46,0-5.29.18A13,13,0,0,1,67.56,130.31Zm-2.19,47.93-1.09.55a4,4,0,0,0,.91-.55l1.09-.55c.37-.18.73-.18.91-.36l1.1-.55a4.16,4.16,0,0,0-.91.55l-1.1.55A1.4,1.4,0,0,0,65.37,178.24Zm3.83-2h0Zm.18,0a2.81,2.81,0,0,1,1.46-.91A11.34,11.34,0,0,1,69.38,176.24Zm2.37-1.46c-.36.18-.55.36-.91.55h-.18Zm-.18-142c0-.19,0-.19-.18,0l.18.18Zm3.28,140.51a2.66,2.66,0,0,1-1.1.37A2.52,2.52,0,0,1,74.85,173.32Zm5.47-42.83c-1.46,0-2.92-.18-4.38-.18A8.92,8.92,0,0,1,80.32,130.49ZM79.77,28.8c.36-.19.55-.37.91-.37a1.66,1.66,0,0,0-.91-.18v.55a3.69,3.69,0,0,0-.91-.55c-.91.55-1.46,1.46-2.55,1.64v.36A4.31,4.31,0,0,0,79.77,28.8Zm-2-4.56a8.89,8.89,0,0,0,5.11-2,6.78,6.78,0,0,0,4-1.45,7.61,7.61,0,0,0-4,1.45A10.42,10.42,0,0,0,77.76,24.24Zm3.47,3.1a1.34,1.34,0,0,0-.37.91A.67.67,0,0,0,81.23,27.34Zm.18,141.79a3.77,3.77,0,0,0,2-1.46,6,6,0,0,0,3.47-2.55,7.77,7.77,0,0,1-1.83.73c-1.09.18-1.45.91-1.64,1.82H82.14C81.23,167.67,81,168,81.41,169.13Zm54.86-152c-.73-.91-1.83-.73-2.74-.91A13.93,13.93,0,0,0,130.8,16a76.28,76.28,0,0,0-17,1.27,199.21,199.21,0,0,0-28.8,8.21,5.58,5.58,0,0,0-2.73,1.82A19.45,19.45,0,0,0,88,26.06a64.28,64.28,0,0,1,8.38-2.91c1.46-.55,3.1-.92,4.56-1.46a120.13,120.13,0,0,1,14-3.28,56.57,56.57,0,0,1,7.84-.91,70.2,70.2,0,0,1,10.75-.19C134.44,17.31,135.36,17.68,136.27,17.13ZM82.5,131.4l.18-.18c0-.18,0-.18-.18,0C82.32,131.22,82.5,131.22,82.5,131.4Zm5.29,33.17c.18-.18.18-.18,0-.36l-.18.18a.62.62,0,0,0-.19.36C87.61,164.57,87.61,164.57,87.79,164.57ZM136.63,12.21a11,11,0,0,0-4.37-1.09,77.48,77.48,0,0,0-11.3,0,148.51,148.51,0,0,0-15.31,2.73c-4,.91-7.84,2.19-11.85,3.28A10.14,10.14,0,0,0,90,19.32c-.18.18-.18.73.19.55,2.18-.55,4.19-.92,6-2.37a5.5,5.5,0,0,1,3.83-.92,9.39,9.39,0,0,0,4.92-.91,35,35,0,0,0,7.65-1.09,70.89,70.89,0,0,1,8.75-1.09,53,53,0,0,1,10.75-.37h1.1c.36-1.27,1.27-.73,2-.91Zm-42.28,146a20.86,20.86,0,0,0-4,4A7.21,7.21,0,0,0,94.35,158.19Zm4.92,2.92h-.36c-.19.18-.37.36-.37.55l.55-.37Zm3.28-2.37h-.18a.18.18,0,0,0,.18-.18l.36-.37C102.91,158.38,102.73,158.56,102.55,158.74Zm2.19-2.92c0,.19-.19.19-.19.37C104.55,156,104.55,155.82,104.74,155.82Zm.18-.18a.18.18,0,0,1-.18.18C104.74,155.46,104.92,155.46,104.92,155.64Zm0-140.51c.73-.19,1.46-.19,2-.37A6.54,6.54,0,0,1,104.92,15.13Zm2-.37a.69.69,0,0,1,.55-.18C107.29,14.58,107.11,14.76,106.92,14.76Zm.73-.36c.19.18,0,.18-.18.18A.18.18,0,0,1,107.65,14.4Zm2.74-.37.18-.18V14Zm3.1-.54c1.45-.73,3.09-.55,4.55-.73A36.06,36.06,0,0,1,113.49,13.49Zm7.47-.91a15.91,15.91,0,0,0-2.92.18A5.21,5.21,0,0,1,121,12.58ZM123.69,47c.18,0,.18,0,.37-.18l-.37.36h-.18C123.33,47.2,123.51,47,123.69,47Zm.37-.18c.54-.18,1.09-.18,1.64-.37A5.18,5.18,0,0,1,124.06,46.84Zm5.65-7.47a4.16,4.16,0,0,0-1.64,1.09,3.94,3.94,0,0,0-1.46.91l-1.64.55a.62.62,0,0,0-.19.36c.19,0,.37.18.55.18.55-.18.91-.72,1.28-1.09a4.11,4.11,0,0,0,1.46-.91A2.71,2.71,0,0,0,129.71,39.37Zm-4,7.1a6.51,6.51,0,0,1,4-2A8.42,8.42,0,0,1,125.7,46.47Zm4-2a3.8,3.8,0,0,1,.91-.55A4.26,4.26,0,0,1,129.71,44.47Zm4.92-3.1v-.55h.54Z"/><path d="M196.23,110.26c.54,1.46-.37,1.82-1.28,2-2.37.54-4.37,1.82-6.56,2.91a21.45,21.45,0,0,1-9.48,2.37c-3.28,0-6.74.37-10,.55a33.55,33.55,0,0,1-11.3-.37,52.22,52.22,0,0,1-7.29-1.45c-.55-.19-1.1-.19-1.46-.37-1.46-.18-2,0-2.73,1.28a25.21,25.21,0,0,1-1.28,3.28c-1.28,1.64-2.92,3.28-4.37,4.92-.19.18-.37.55-.19.55.92,1.27-.36,1.64-1.09,2a23.8,23.8,0,0,1-8.56,3.64,10.44,10.44,0,0,1-12.4-8.2,52.47,52.47,0,0,1-.54-5.28,11.82,11.82,0,0,1,2.55-7.29A43.22,43.22,0,0,1,127.7,103a6,6,0,0,1,3.64-1.46c.73-.18,1.46.19,1.46.55,0,.55-.73.55-1.09.91-.18,0-.37,0-.37.18a.69.69,0,0,0-.18.55l.55.55h.36c1.46-.55,2.92-.73,3.83-2s1.46-1.27,2.55-.54c6.2,4.19,13.12,5.46,20.41,6a62.52,62.52,0,0,0,8.21.18l10.38-.54a42.86,42.86,0,0,1,4.92-.37,10.83,10.83,0,0,0,3.47-.36,19.54,19.54,0,0,1,3.28-.55,3.24,3.24,0,0,0,2.18-.55l2-.91c1.28-.55,1.82-.18,2.19,1.1.18.54.18,1.27.73,1.64a2,2,0,0,1,0,2.55ZM139,112.45,136.26,109a2,2,0,0,0-2.91-.37,11.08,11.08,0,0,0-1.46,1.09l-2.19,1.64a7.69,7.69,0,0,0-3.82,4.74c.36,0,.54.37.18.73a19.79,19.79,0,0,0-1.64,3.47c-.18,1.09,0,1.64,1.09,1.64a10.47,10.47,0,0,0,6.2-1.1,18.09,18.09,0,0,0,6.56-5.65c.36-.36.55-.91.91-1.27A1.39,1.39,0,0,0,139,112.45Zm-9.48,13.49c1.28.54,2.19,0,3.28-.55v-.18a.18.18,0,0,0-.18-.19h-1.28a14,14,0,0,0,2-1.45,19.74,19.74,0,0,0-4.74,1.09c-.18,0-.18.18-.18.36,0,.37.18.37.36.37a.68.68,0,0,0,.55.18A.67.67,0,0,0,129.52,125.94Zm6.93,2.18c0-.18-.37-.36-.37-.36a2.32,2.32,0,0,1-1.09.18c-1.46.55-2.92.91-4.56,1.46l-.54.36c-.19,0-.19.18-.19.37s.19.18.37.36h.36a11.41,11.41,0,0,0,4-.91,3.77,3.77,0,0,0,1.82-1.09C136.45,128.49,136.45,128.12,136.45,128.12Zm8.56-6.56c-.18.18-.36.37-.36.55v-.18C144.65,121.74,144.83,121.74,145,121.56Zm0-1.09h.37a2.62,2.62,0,0,0-.37,1.09Zm16.41-9.12c.91,0,1.82.19,2.55.19h7.65a1.37,1.37,0,0,1,1.46.54H168a1.77,1.77,0,0,0,1.09.37c4.56.18,8.93-.37,13.3-.55a6.6,6.6,0,0,0,1.83-.36c.54-.19.91-.19,1.27-.73a5.26,5.26,0,0,1,2.74-1.64,10.35,10.35,0,0,0,2.18-.73c.19,0,.37-.18.19-.55,0-.18-.37-.18-.55,0a7.61,7.61,0,0,0-.91.18,15,15,0,0,1-5.65,1.46c-3.1.37-6.2.73-9.3.91-4,0-8,.37-12,.55A.72.72,0,0,0,161.42,111.35Zm30.07.92c-1.1-.55-2,.36-2.92.73a17.91,17.91,0,0,1-4.92,1.64c-1.82.36-3.64.54-5.47.72-4.92.19-9.66.55-14.58.55a4.51,4.51,0,0,0-2.18.37c.36.54,1.09.54,1.64.54a14.26,14.26,0,0,0,4,.18c4.37,0,8.74-.36,13.12-.54a18.81,18.81,0,0,0,8.93-2.55C189.85,113.36,190.94,113.18,191.49,112.27Zm-11.85-.92h-2.92v-.18h2.92Zm3.46-.54h-.18a.63.63,0,0,1,.37-.18l.18.18Z"/><path d="M299,5.47a25.31,25.31,0,0,1-1.82,2.37c-.73,1.09-1.64,2.18-2.55,3.28h.18a16.41,16.41,0,0,0-6.2,6,4.34,4.34,0,0,0-1.64,1.1c-2,2-4.19,3.82-6,6a15.93,15.93,0,0,1-2.55,2.37c-3.28,3.28-6.56,6.56-9.84,10a2.59,2.59,0,0,0-1.28,2.55c0,.92-1.09,1.28-1.82,1.64a.7.7,0,0,0-1.1,0,14.91,14.91,0,0,0-2.91,2.92v.36H262c.18,0,.36-.18.54-.36-1.09,1.46-2,2.92-3.46,3.65-.18-.37-.37-.73-.55-.55a19.45,19.45,0,0,0-5.28,4.92c-.37.36-.55.91-.91,1.27a3.59,3.59,0,0,0-1.46,2.19c-.55,1.46-2,2.37-3.46,3.28a2.87,2.87,0,0,0-1.28,1.28L244,62.51a34.22,34.22,0,0,0-5.28,4.92l-1.64,1.46c-.19.18-.55.37-.73.55-1.1.54-1.28,2-2.37,2.73a5.39,5.39,0,0,0-2.55,2.37v.55a7.37,7.37,0,0,0-1.28.73,2.83,2.83,0,0,0-1.27,1.27v-.18l-.55.55A12.21,12.21,0,0,0,223.74,82c-2.37,1.46-4.19,3.83-6.19,5.83-4.2,4.38-8.2,8.75-12.21,13.13-1.1,1.27-1.83,2.37-2.74,3.64l-.55.55h.19l-.55.55a14.63,14.63,0,0,0-5.1,5.46,5.23,5.23,0,0,0,5.1-1.09,36.87,36.87,0,0,1,8.2-3.65,10.71,10.71,0,0,0,2.19-.91c.55-.18,1.09-.73,1.64-.91,4-1.09,7.65-2.91,11.85-3.28a8.88,8.88,0,0,1,2.18-.18,5.78,5.78,0,0,1,4.56,2.73,37,37,0,0,1,2,3.83c1.1,2.19,1.46,4.19-.18,6.38-.55.73-.91,1.64-1.46,2.55-.18.36-.36.73,0,.91.19.18.55-.18.73-.36.37-.37.73-.55.91-.91v.91c.19,1.46.73,1.82,2,1.27,3.28-1.27,6.74-2.73,9.84-4.19A39.14,39.14,0,0,1,256,111a20.67,20.67,0,0,0,2.37-.91,34.24,34.24,0,0,1,7.65-2.19,19.92,19.92,0,0,0,6.38-2c1.1-.55,1.64-.37,2.56.54.54.37.72,1.1-.19,1.64l-.73.73a16.1,16.1,0,0,0-2.91.37,148.84,148.84,0,0,0-19.5,5.65c-6.38,2.37-12.58,5.1-18.77,7.65a3.65,3.65,0,0,0-1.46.73c-.55.37-.37.73,0,1.09a5.49,5.49,0,0,1,2.55-.91,7.07,7.07,0,0,1-2.55.91c-.37.19-.55.37-.91.55,0,.18-.19.37-.19.55.19,0,.19.18.37.18a15.92,15.92,0,0,0,4.74-2.19,6.77,6.77,0,0,0,3.46-1.64h-1.46a7.37,7.37,0,0,1,3.46-1.45,3.06,3.06,0,0,0-.72.91,3.84,3.84,0,0,0,2.18-.91,21.11,21.11,0,0,0,7.29-2.92,14.2,14.2,0,0,0-2.73.36,26.53,26.53,0,0,1,8-2.91,9.54,9.54,0,0,1-2.37,1.09,15.29,15.29,0,0,0-2.37,1.28,16.24,16.24,0,0,0,2.73-.73c4.38-1.46,8.93-2.74,13.67-4l4.56-1.1c.54-.18,1.09-.36,1.27-.72,0-1.28.91-1.46,1.64-1.83,1.1,0,1.83.73,2.74,1.28s.91,1.27.54,2.37a2.6,2.6,0,0,0-.36,1.09c.36,1.28.36,1.46-.73,1.64-4,1.28-8.2,2.55-12.39,3.65a140.49,140.49,0,0,0-16.77,5.83c-6.38,2.55-12.57,5.47-19.14,7.84a8.65,8.65,0,0,1-3.09.73c-.37,0-.91,0-.91-.37.18-1.09-.55-1.09-1.28-1.28A3.3,3.3,0,0,1,220.1,129a34.65,34.65,0,0,1-.73-4.37,6.25,6.25,0,0,1,.91-4c1.09-1.82,2.19-3.46,3.1-5.29a5.29,5.29,0,0,0,1.09-2c0-.73-.36-1.46-1.09-1.28-.37,0-.55,0-.73.19a53.15,53.15,0,0,0-9.48,3.46,161.32,161.32,0,0,0-15.85,8.2q-5.2,2.73-10.39,4.92c-.18,0-.37.18-.55.18a5.37,5.37,0,0,1-6.92-1.27,5,5,0,0,1-1.28-2.37,12.72,12.72,0,0,0-1.09-3.46,4.13,4.13,0,0,1,.36-3.28,10,10,0,0,1,1.64-2.56c2.37-2.91,4.74-5.83,7.29-8.74a26.82,26.82,0,0,1,3.1-3.29c1.46-1.45,2.55-2.91,3.83-4.37a70.82,70.82,0,0,1,4.92-5.47,28.44,28.44,0,0,0,3.1-3.46c.18-.36.54-.55.72-.73,4.56-4,8.21-8.93,12.58-13.12a120,120,0,0,1,9.66-9.48c1.09-.91,2-2,3.1-2.91,5.65-4.74,10.75-10.39,16.22-15.31,4.55-4,8.75-8.39,13.3-12.4,2.74-2.55,5.47-5.28,8.2-7.65l2.56-2.55a37.3,37.3,0,0,1,4.73-4.56c1.1-.91,2.19-2,3.28-3.1,1.64-1.64,3.28-3.28,5.11-4.92,1.09-1.09,2.18-2.18,3.46-3.28a19.28,19.28,0,0,1,2.92-2.55,66.07,66.07,0,0,0,5.28-4.74L295.73.73A4.39,4.39,0,0,1,297.37,0a1.36,1.36,0,0,1,1.28.91,12.65,12.65,0,0,1,.73,2.37A3.13,3.13,0,0,1,299,5.47ZM226.29,109.9c.19,0,.19-.19.37-.37a.48.48,0,0,0-.55-.54,9.75,9.75,0,0,0-3.1.72,110.3,110.3,0,0,0-21.32,9.12,147.78,147.78,0,0,1-15.13,7.65l-1.27.73s-.18.37,0,.37a.39.39,0,0,0,.36.36,2.64,2.64,0,0,0,1.1-.36,20.78,20.78,0,0,0,3.46-1.46l13.49-6.93a99.23,99.23,0,0,1,21-8.56C225.2,110.44,225.75,110.08,226.29,109.9Zm-36.81,11.3a.56.56,0,0,0,.36.18,11,11,0,0,0,4.2-2.55,12,12,0,0,0-4.38,2C189.48,120.83,189.48,121.2,189.48,121.2Zm4.19-4.2a5.06,5.06,0,0,0-2.19,1.65v.18h.19c1.45-.18,2.55-1.1,3.82-1.64-.18.36-.18.73-.36,1.09a8.4,8.4,0,0,0,2.92-1.28c9.11-4.55,18.22-8.93,28.06-11.48a1.38,1.38,0,0,0,.91-.36c.37-.18.55-.37.55-.73-.18-.37-.18-.73-.55-.73a5.92,5.92,0,0,0-2.55.18,52.25,52.25,0,0,0-9.11,2.74C207.89,109.53,200.78,113.36,193.67,117Zm2.92-.18a2.66,2.66,0,0,1-1.1.37C195.86,117,196.22,117,196.59,116.82Zm1.09-.54-1.09.54a4,4,0,0,0,.91-.54l1.09-.55A3.69,3.69,0,0,0,197.68,116.28Zm2-1.1-1.1.55a3.8,3.8,0,0,0,.91-.55Zm.91-.36a2.64,2.64,0,0,1-1.1.36C199.87,115,200.23,115,200.6,114.82Zm1.45-9.11.19-.19v.19Zm.19-.19v-.36h.36Zm1.82-12.75A2.17,2.17,0,0,0,202.78,94v.18h.37A2.46,2.46,0,0,0,204.06,92.77Zm4.74,18c-.37.18-.73.18-1.1.36.37-.18.55-.36.92-.36l1.09-.55A4,4,0,0,0,208.8,110.81Zm3.46-1.64-.18.18v-.18a2.62,2.62,0,0,1,1.09-.37Zm2.37-17V92l.55-.37Zm5.65,14a5.4,5.4,0,0,1-1.64.37C219.19,106.43,219.73,106.43,220.28,106.25Zm6,25.33c.73.37,1.28-.18,2-.36a1.4,1.4,0,0,0,.91-.36c5.47-1.83,10.57-4.38,15.86-6.57a111.64,111.64,0,0,1,13.66-4.92c4.38-1.45,8.94-2.55,13.31-3.82a4.13,4.13,0,0,0,2-.91.4.4,0,0,0,.37-.37,1,1,0,0,0-.73-.36,2,2,0,0,0-.91.18A196,196,0,0,0,248,121.93c-6.74,2.73-13.3,5.83-20,8.2C226.48,130.67,225.75,131.22,226.29,131.58Zm9.3-70.53a10.68,10.68,0,0,0-4.19,3.83,4.18,4.18,0,0,0,2.18-1.46A12.42,12.42,0,0,0,235.59,61.05Zm-1.82,62.33a9.49,9.49,0,0,1,3.64-1.64,19.76,19.76,0,0,0-2,1.64h-1.64Zm10.75-4.55-2.19,1.46h-1.46A6.43,6.43,0,0,1,244.52,118.83Zm-.18,0a6.47,6.47,0,0,1,2.55-1.1A6.33,6.33,0,0,1,244.34,118.83ZM258,113.72a6.38,6.38,0,0,1-3.1,1.1A9,9,0,0,1,258,113.72Zm2-.54a4.21,4.21,0,0,1-2,.54Zm-1.09-65.79h0Zm2.55,65.42a3.34,3.34,0,0,1-1.46.37Zm1.64-69.43c-.18.18-.37.36-.55.36C262.74,43.56,262.93,43.38,263.11,43.38Zm.36,68.89c.73-.19,1.28-.37,2-.55Zm5.65-1.46h.37a.59.59,0,0,0-.37.18h-.18C268.76,110.81,268.94,110.81,269.12,110.81Zm.37-.18h.36a.56.56,0,0,0-.36.18ZM288.62,18v-.91a1.36,1.36,0,0,0,.73-.36h.37v.36A4.65,4.65,0,0,1,288.62,18Z"/><path d="M350.41,109.53c0,.37-.19.73,0,1.1a2.26,2.26,0,0,1-.73,1.45,6.68,6.68,0,0,0-1.83,1.28c-1.09.73-2.36,1.28-3.09,2.37a6.08,6.08,0,0,0-1.64.73c-6.57,4-13.31,7.65-20.05,11.48A65.58,65.58,0,0,1,310,133.77a15.39,15.39,0,0,1-4.2.55,4.94,4.94,0,0,1-3.09-1.46A8.64,8.64,0,0,1,299,126.3a6.9,6.9,0,0,0-.55-3.28c-.36-.55-.72-.73-1.27-.55a18.09,18.09,0,0,0-1.82.91c-2.92,1.64-5.84,3.28-8.93,4.74-5.11,2.74-10.21,5.47-15.86,6.93a20.5,20.5,0,0,1-3.46.73,4.49,4.49,0,0,1-4-1.64c-.37-.55-.91-.91-1.28-1.46a7,7,0,0,1-2-4.56c-.19-.91-.19-1.82-.37-2.73a11.9,11.9,0,0,1,3.1-9.3,22.15,22.15,0,0,1,2-2.18A40.58,40.58,0,0,1,275,105a27,27,0,0,0,3.65-2.74,12.75,12.75,0,0,1,3.28-2.18,36.44,36.44,0,0,1,8.93-4.2.56.56,0,0,0,.36-.18,62.9,62.9,0,0,1,8.21-.55c2.55.37,4.19,2,5.46,4.2.37.73.73,1.82,1.1,2.73.36.55.54,1.28.91,1.82a.8.8,0,0,0,1.09.37c.18,0,.37-.19.73-.37,1.46-.36,2.73.18,2.92,1.64S312,108.07,313,109a1.34,1.34,0,0,1,.37.91c.36.73-.37,1.27-.37,2-.18.73.73,1.28.73,2.19a1.79,1.79,0,0,1-.73.91c-2.36,1.64-3.09,4.37-4.37,6.74a.82.82,0,0,0,0,.91,1.58,1.58,0,0,0,.91.19,27.54,27.54,0,0,0,6.75-2.74c3.28-2,6.74-3.82,10-5.65l1.27-.54c2.92-2,6.2-3.28,9.12-5.11a9.85,9.85,0,0,1,2-.91,20,20,0,0,0,5.47-2.18,15.52,15.52,0,0,1,3.1-1.46.89.89,0,0,1,1.09.73,4.39,4.39,0,0,1-.73,1.64.68.68,0,0,1,.55.18C350.59,107,350.77,107.35,350.41,109.53ZM267.3,130.31a12.94,12.94,0,0,0,4.37-1.09,2.35,2.35,0,0,0,1.64-2.37,2.57,2.57,0,0,0,3.47-.37l.91-.54a4.69,4.69,0,0,0-4.38.91,41,41,0,0,0-6.38,1.45c-.54,0-.91.37-.72.92C266.21,129.94,266.57,130.49,267.3,130.31Zm28.07-8.38c0-.37-.37-.37-.55-.37a1.11,1.11,0,0,0-.73.18,58.71,58.71,0,0,0-5.83,2.92,101.82,101.82,0,0,1-9.84,5.1,39.71,39.71,0,0,1-10.21,3.47l-1.09.54c-.19,0-.19.18-.19.37s.19.18.19.36H268a11.65,11.65,0,0,0,4.37-.91,50.27,50.27,0,0,0,8.57-3.65l7.83-3.82a65.51,65.51,0,0,1,6-3.47c.18-.18.36-.18.36-.36A.54.54,0,0,0,295.37,121.93Zm-27.89,1.82a.67.67,0,0,0,.37-.18s0-.19.18-.19a.66.66,0,0,0-.55.19Zm33-19.69a4.55,4.55,0,0,0-2.19-.18,22.77,22.77,0,0,0-12,4.92c-.18.19-.36.19-.36.37a6.07,6.07,0,0,0-2.37,1.27c-2.37,1.83-4.74,3.47-6.93,5.47s-4.37,4.19-6.37,6.38a1.55,1.55,0,0,0-.55,1.09c-.18.19,0,.55.18.73,0,.18.37.18.55.18a1.4,1.4,0,0,0,.91-.36,15.13,15.13,0,0,1,4-1.46,20.49,20.49,0,0,0,4.55-2.18,4.13,4.13,0,0,1,1.46-.92c3.65-2,7.29-4,11.12-5.83,1.82-1.09,3.65-2.19,5.47-3.46a14.33,14.33,0,0,0,3.46-4C301.93,105.16,301.56,104.43,300.47,104.06ZM279,125.21c.19,0,.19-.19.37-.37H279a2.71,2.71,0,0,0-.73.55A1.41,1.41,0,0,1,279,125.21Zm3.28-21.51a6.55,6.55,0,0,0,3.65-2c.55-.19,1.09-.19,1.64-.37a100.93,100.93,0,0,1,10-2.37,8.14,8.14,0,0,0,1.83-.36.68.68,0,0,0,.18-.55c0-.36,0-.73-.37-.91-.36,0-.73-.18-1.09-.18a26,26,0,0,0-6.2,1.09,11.33,11.33,0,0,0-6,3.1v.55A6.58,6.58,0,0,0,282.24,103.7Zm16.95-1.82h-.54a24.35,24.35,0,0,0-9.66,2.55l-.55.55v.18c0,.18,0,.18.18.18a2.16,2.16,0,0,0,1.83-.36,37.83,37.83,0,0,1,7.83-2c.37,0,.73-.18,1.1-.18a.48.48,0,0,0,.54-.55A.94.94,0,0,0,299.19,101.88Zm28.43,22.23c0-.54-.54-.36-.72-.36a5.54,5.54,0,0,0-2.37,1.09,13.09,13.09,0,0,1-2.74,1.64,26.63,26.63,0,0,0-6.19,2.74,25.11,25.11,0,0,1-7.84,2.55,4.34,4.34,0,0,0-1.46.36c-.18,0-.18.18-.18.37s0,.36.18.36l.73.18a8.41,8.41,0,0,0,4.37-.73,88.07,88.07,0,0,0,10.39-4.55L324,126.3a1.5,1.5,0,0,0,.55-1.46,3.13,3.13,0,0,0,2.55-.18C327.26,124.66,327.81,124.48,327.62,124.11Zm-20.77,3.1.36.18a5.86,5.86,0,0,0,2.55-.73.18.18,0,0,0,.19-.18l-.37-.36a5.86,5.86,0,0,0-2.55.73C306.85,126.85,306.85,127,306.85,127.21Zm.18.91c0,.18,0,.37.18.37a1.21,1.21,0,0,0,1.1-.19v-.36C307.94,127.76,307.21,127.76,307,128.12Zm16-7.29a2.81,2.81,0,0,0,1.46-1.09A4.34,4.34,0,0,0,323.07,120.83Zm23.14-13.12c-.18,0-.18,0-.36.18a.18.18,0,0,0-.18.18h.18Z"/><path d="M471.6,117.92l-.91.36c-1.64.73-3.28,1.64-4.92,2.37l-17.13,6.56c-4,1.64-7.84,3.46-11.85,5.29a54.72,54.72,0,0,1-6.56,2.55,4.59,4.59,0,0,1-5.1-1.46,9.29,9.29,0,0,1-2.74-5.47,18.67,18.67,0,0,1-.36-4.55,13.31,13.31,0,0,1,2.19-5.84c.72-1.09.54-2.55,1.27-3.64a.4.4,0,0,0-.36-.37,5.77,5.77,0,0,0-1.64.55,60.61,60.61,0,0,0-6.93,4.92c-6.38,4.56-12.39,9.48-18.77,13.85a55.65,55.65,0,0,1-10.21,5.65,8.77,8.77,0,0,1-2.37.73c-.91.18-1.64.37-1.82-.91,0-.18-.36-.36-.55-.55a2,2,0,0,1-.91-.18,2.91,2.91,0,0,1-2.37-2.37c-.18-1.46-.54-2.91-.72-4.37a5.54,5.54,0,0,1,.54-3.1,110.41,110.41,0,0,1,6.2-11.12c.54-.91,1.46-2,1.27-3.46,0-.18.37-.36.55-.73a.56.56,0,0,0,.18-.36.64.64,0,0,0-.54-.19l-1.1.55c-3.64,1.64-7.29,3.46-10.93,5.29-4.38,2.18-8.75,4.55-13.12,6.56-3.1,1.46-6,2.91-9.12,4a28.25,28.25,0,0,1-4.19,1.45,6.46,6.46,0,0,1-8-4.55,46.35,46.35,0,0,1-.73-4.92,6.66,6.66,0,0,1,.73-4.19,154.84,154.84,0,0,1,7.29-14.58,18.57,18.57,0,0,1,4-4.38,4.32,4.32,0,0,1,2-1.09h.54v.54c-.18.55-.91.92-.73,1.65.37.36.73,0,1.1-.19a1.38,1.38,0,0,1,1.46.19,1.79,1.79,0,0,1,.18,1.64l-1.28,2.18c-.73,1.28-1.64,2.55-2.37,4-.54.91-1.09,2-1.64,3.1-.73,1.09,0,2.19-.36,3.28v.18c-.55,0-.91,0-1.09.37a7.62,7.62,0,0,0-1.1,2.55l-.73,1.27a1.43,1.43,0,0,0,.91,2,2.86,2.86,0,0,0,2.19-.36,18.17,18.17,0,0,1,5.29-2,12.32,12.32,0,0,0,4.37-2.19,29.82,29.82,0,0,1,3.28-1.82,19.09,19.09,0,0,0,2.73-1.46,18.33,18.33,0,0,1,4.38-1.82,14.76,14.76,0,0,0,3.28-1.82,7.92,7.92,0,0,1,2-1.46c3.65-1.28,6.75-3.28,10.39-4.37a8.48,8.48,0,0,0,2.55-1.28,8,8,0,0,1,4.56-1.09,2.74,2.74,0,0,1,2.92,1.82,9.59,9.59,0,0,0,1.27,2.37c1.64,2.55,2,5.28.37,7.83l-1.46,2.74c-.18.55-.55,1.09-.37,1.64a3.64,3.64,0,0,1-.73,3.1,4.11,4.11,0,0,0-1.09,2.37.56.56,0,0,0,.73.73,4,4,0,0,0,1.46-.92,26.56,26.56,0,0,0,2.91-2,38.41,38.41,0,0,0,6.93-5.29,38,38,0,0,1,6.56-4.55,18.16,18.16,0,0,0,3.1-1.82,73,73,0,0,1,8.93-5.65c2-.92,4-2,6.2-2.92a2.81,2.81,0,0,1,4,1.64c.55.91.92,1.82,1.46,2.55a6.94,6.94,0,0,1,.55,7.47l-5.1,9.3c-1.28,2-.73,2.19,1.45,2.55a3.18,3.18,0,0,0,2.19-.36c3.28-1.46,6.74-2.74,10-4.38a77.55,77.55,0,0,1,9.11-3.64c2.55-.91,5.1-1.83,7.47-2.92a22.35,22.35,0,0,1,4.56-1.46c1.09-.18,1.64,0,2,.73.37.55-.18,1.09-1.27,1.46-3.47,1.28-6.93,2.73-10.39,4-8.2,2.92-16.22,6.38-24.24,10a20.21,20.21,0,0,0-2,1.1c-.18,0-.18.18-.18.36a.67.67,0,0,1,.37.18l1.45-.54,8.2-3.83c2-.73,4-1.82,6.2-2.19a18.23,18.23,0,0,0-2,1.46,34.91,34.91,0,0,0,9.11-3.46,20.53,20.53,0,0,1-3.1.36,20.43,20.43,0,0,1,6.56-2.37c-1.09.91-2.55.91-3.64,2a51.13,51.13,0,0,0,11.48-4.38l.18-.18h-1.46a7.74,7.74,0,0,1,4-1.46v.37h2.19c.73,0,1.09.36,1.28,1.09a1.36,1.36,0,0,1-.73,1.46c-2.37,1.27-4.92,2.19-7.29,3.28-6.38,2.37-12.94,4.92-19.32,7.47-2.19.91-4.38,2-6.56,3.1a44.51,44.51,0,0,1-8.21,3.1l-.54.36a.69.69,0,0,0-.18.55.63.63,0,0,0,.36.18h1.28c.91-.36,1.64-.54,2.55-.91,1.82-.91,3.64-1.64,5.47-2.55,5.46-2.73,11.11-4.74,16.76-6.93a138.17,138.17,0,0,0,13.31-5.46,8.66,8.66,0,0,1,2.37-.73H472C472.15,117.55,471.78,117.73,471.6,117.92ZM348,124.48a18.07,18.07,0,0,0,2.92-.73c4.74-2,9.3-4.19,13.85-6.56a5.25,5.25,0,0,0,2-1.46c-.73-.18-1.28.73-2,.18a35.55,35.55,0,0,1,4.56-2.19c0,.55.36.73.91.55l1.46-1.09h-1.46a6.54,6.54,0,0,1,2-.91c-.18.36-.18.73-.36.91a2.92,2.92,0,0,0,1.46-.91,4.34,4.34,0,0,0,2-1.1,3.18,3.18,0,0,1,.91-.36h-.91a3.8,3.8,0,0,0,.91-.55c0,.18.19.18.19.37,0-.19,0-.37-.19-.37l.55-1.09c1.46-.55,3.1-.91,4.56-1.46a3.07,3.07,0,0,0-.73.91,11.5,11.5,0,0,0,5.28-2.37H384.3a13.35,13.35,0,0,1,3.65-1.64l-1.1,1.1c1.64-.19,3.1-1.1,4.56-1.28,1.28-.37,1.46-1.28,1.82-2.19.19-.18-.18-.54-.54-.54l-2,.54c-4,1.64-7.84,3.47-11.66,5.29a9.65,9.65,0,0,0-2.19,1.64,7,7,0,0,0-3.28,1.09c-5.83,2.92-11.48,6.2-17.5,8.75-2.37,1.09-4.55,2.19-6.92,3.1a3.4,3.4,0,0,0-1.82.91c-.37.18-.19.73-.19,1.09A.67.67,0,0,0,348,124.48Zm40.65-14.4.73-.55c.18,0,.18-.36.18-.36,0-.37-.37-.55-.55-.37a22.72,22.72,0,0,0-2.37.91c-6,2.56-11.66,6-17.68,8.94-4.92,2.36-9.66,4.92-14.76,6.92-1.64.55-3.1,1.09-4.74,1.82l-1.64.55c0,.18-.18.36-.18.55a.63.63,0,0,0,.36.18,7.45,7.45,0,0,0,2.92-.55c2.55-.91,4.92-1.82,7.29-2.91l10.39-5.29c5.65-2.73,11.48-5.83,17.31-8.57A18.1,18.1,0,0,0,388.68,110.08Zm-39,3.1a2.53,2.53,0,0,0,1.09-.37C350.4,113.18,350,113.36,349.68,113.18Zm23.69-1.46v.55h-1.1Zm2-1.09v.54h-1.09ZM400,129.94c0-.18-.19-.18-.37-.18a6,6,0,0,0-2.37,1.28,52.71,52.71,0,0,1-10,5.28,2.89,2.89,0,0,1-1.28.73.56.56,0,0,0,0,.73c0,.18.18.18.37.18a1.38,1.38,0,0,0,.91-.18c.91-.36,1.64-.55,2.37-.91,3.46-1.64,6.56-4.19,9.84-6l.55-.55C400.16,130.13,400.16,129.94,400,129.94ZM389,104.25a2.6,2.6,0,0,1-1.09.36C388.31,104.43,388.68,104.43,389,104.25Zm3.28,17.86h.18v-.18Zm12.76-2.37a2.87,2.87,0,0,0-1.46,1.09A2.81,2.81,0,0,0,405.08,119.74Zm2.55-2a3.33,3.33,0,0,0-1.64,1.1A3.26,3.26,0,0,0,407.63,117.73Zm8.93-6.56a16.37,16.37,0,0,0-6.56,4.56A16.37,16.37,0,0,0,416.56,111.17Zm3.83-2.37a2.18,2.18,0,0,0-1.28.91,2.93,2.93,0,0,0-1.46,1.1c.55-.37,1.1-.55,1.46-1.1A2.1,2.1,0,0,0,420.39,108.8Zm.36-.18a5.24,5.24,0,0,0,1.83-.55l4.55-2.91c-.91.18-1.82.36-2.55.55A4.11,4.11,0,0,0,420.75,108.62Zm6.75,1.46c0-.18-.55-.18-.73,0a45.21,45.21,0,0,0-4,2.37,2,2,0,0,0-1.1,1.27c2-.54,3.65-2,5.47-2.91C427.5,110.63,427.68,110.44,427.5,110.08Zm2.18-7.47a3.89,3.89,0,0,0,2-.37.34.34,0,0,0,.18-.54h-.55a7.29,7.29,0,0,0-1.64.91,9.13,9.13,0,0,0-2.91,1.64A4,4,0,0,0,429.68,102.61Zm.55,26.42a1.89,1.89,0,0,0,1.46-.73,4.33,4.33,0,0,0,2.55-.91,4.4,4.4,0,0,0-2.55.91C430.59,128.49,429.86,128.85,430.23,129ZM435,117.37v.18h-.18v-.18C434.79,117.19,435,117.37,435,117.37Zm13.85,2.92c-.55.18-.91.36-1.46.54Zm2.19-.92a8,8,0,0,1-2.19.92A3.79,3.79,0,0,1,451,119.37Zm.36,0H451a.63.63,0,0,0,.36-.18Zm.91,7.48h.18l-1.09.54A3.82,3.82,0,0,0,452.28,126.85Zm8.2-11.12a6.31,6.31,0,0,1-2.55,1.09A5.5,5.5,0,0,1,460.48,115.73Zm1.46-.37a3.48,3.48,0,0,0-1.46.37l1.46-.55Zm2.55-1.09a4.33,4.33,0,0,1-2.55.91A4.4,4.4,0,0,1,464.49,114.27Z"/><path d="M182.75,177.18a27,27,0,0,1-4.37,4.74c-2.19,2-4.38,3.83-6.75,5.65-2.18,1.64-4.19,3.46-6.38,5.29l-.54.54c-.37,1.64-1.46,2-2.92,2.56a5.28,5.28,0,0,0-3.28,2,5.22,5.22,0,0,0-2,2,6,6,0,0,1-4.56,2.91,1.28,1.28,0,0,0-1.09.55c-.55,1.64-2.56,1.82-3.28,3.1-1.28-.37-1.28-.37-2,.91a6.15,6.15,0,0,0-2.55,1.64.86.86,0,0,1-.18,1.09c-.18.18-.55.18-.91.37-1.1-.37-1.83.36-2.56,1.09v-.18l-1.82,1.09c-.18,0-.36.36-.18.36,0,.37.36.19.55.19h.54a7.24,7.24,0,0,1-2.55,1.46.62.62,0,0,1-.36-.19c-.37,0-.73,0-.73.37,0,.18.36.36.55.36a8.46,8.46,0,0,1-2.92,2l.36-.91a2,2,0,0,0-1.45.91l-2,.54c-1.09,1.1-2.73,1.46-4,2.55a9.89,9.89,0,0,0,2.37,0,16.45,16.45,0,0,1-6,4l1.09-1.64a4.8,4.8,0,0,0-2,1.28V224a.67.67,0,0,0,.37.18h.73a16.42,16.42,0,0,1-2.19,1.64L98.91,239c-2.55,1.64-5.1,3.09-7.65,4.55a6.29,6.29,0,0,1-2.73,1.28,4.08,4.08,0,0,0,.73-1.09v-.37a.69.69,0,0,0-.55-.18,3,3,0,0,0-1.82,1.28.64.64,0,0,0-.19.54c.19.37.55.37.92.37a16.1,16.1,0,0,0-1.83,1.27,14.91,14.91,0,0,0-1.64,1.64c-.73,1.28-.73,2.19.91,2.74,3.65,1.64,7.11,4.19,11.12,5.28a7.8,7.8,0,0,1,2.55,1.09c4.38,2.37,9.12,4.2,13.67,6.2l7.47,3.65c5.65,2.55,11.3,5.1,16.95,7.47l9.66,4.37c2.92,1.28,5.83,2.19,8.75,3.28a35.87,35.87,0,0,1,6,2.92c.73.55,2,.73,2.37,1.64-1.09.18-2-.37-2.91-.55-1.46-.36-2.74-1.27-4.38-1.46a.4.4,0,0,0-.36.37.56.56,0,0,0,.18.36c.18.19.37.37.55.37l2.19,1.09c1.45.55,3.09,1.28,4.55,1.82a7.66,7.66,0,0,1,1.64.91,1.91,1.91,0,0,1,.18.55.48.48,0,0,1-.54.55,8.3,8.3,0,0,1-2-.18c-1.27-.19-2.37-.55-3.64-.73-.37-.19-1.1-.37-1.1-.19-.36.73.55.73.92.92.72.36,1.45.54,2.36.91-.36.54-.72.36-1.09.36a15,15,0,0,1-3.83-1.09c-8.56-3.1-16.95-6.74-25.15-10.21-7.1-3.1-14-6-21-9.11l-12.57-6-16.4-7.66-1.1-.55c-1.82-.54-2.73-.18-3.82,1.46-2.56,4.56-5.11,9.11-7.48,13.67-1.45,3.1-3.28,6-4.92,9.11a30.17,30.17,0,0,0-1.46,3.47,5.71,5.71,0,0,0-2,4,2.16,2.16,0,0,0-.91.91,54.07,54.07,0,0,0-4,8L55,299.11c-2.55,4-4.19,8.38-6.19,12.58a7.33,7.33,0,0,0-.73,3.46c0,1.27-.91,1.64-2,1.09A8.45,8.45,0,0,1,44.79,315c-.55-1.64-1.1-3.28-.55-5.11a39.7,39.7,0,0,1,1.82-4.92l6-13.12c4-8.2,8.2-16.22,12.57-24.24,1.64-2.92,2.92-5.83,4.74-8.75a5.43,5.43,0,0,0,.73-1.82c.18-.55.55-1.09.18-1.64-.55-.55-1.09,0-1.64.18l-5.1,2.19a39,39,0,0,1-7.84,2.19,9.77,9.77,0,0,1-5.1-.37v-.18c.18-.37.36-.37.54-.37a18.69,18.69,0,0,0,9.48-1.09,50.63,50.63,0,0,0,8.2-3.28,1.75,1.75,0,0,0,.91-.73v-.18l-.18-.18h-.73c-1.27.54-2.37.91-3.64,1.46a51.25,51.25,0,0,1-9.3,3.09,19.94,19.94,0,0,1-4.74.19,3.58,3.58,0,0,1-1.82-.55c-.36-.18-.54-.37-.54-.73s.36-.55.72-.55a8.42,8.42,0,0,0,2.92-.73v.19c4.37,0,8.2-1.46,12-3.65h.18c0-.18-.18-.36-.18-.55s-.18-.72-.55-.54a4.4,4.4,0,0,0-1.46.36c-1.82.55-3.64,1.1-5.46,1.82a29.73,29.73,0,0,1-5.84,1.1,1.08,1.08,0,0,1-1.27-.18.35.35,0,0,1,0-.55,2.42,2.42,0,0,1,.73-.55,13.5,13.5,0,0,1,3.64-.91c2.19,0,4.19-.91,6-1.46.91-.36,1.09-1.27.36-1.82-1.82-.91-3.64-2.19-5.83-1.82a1.38,1.38,0,0,1-1.64-.55,2.22,2.22,0,0,1,.18-2.37c0-.18.37-.36.55-.36a7.74,7.74,0,0,1,2.91-.18,21.32,21.32,0,0,1,5.84,1.64,10.69,10.69,0,0,0,3.28.72.63.63,0,0,1,.36-.18.56.56,0,0,1-.18-.36,50,50,0,0,0-10.21-2.92,3.11,3.11,0,0,1-1.27-.18.63.63,0,0,1-.18-.37.18.18,0,0,1,.18-.18c.18-.18.36-.36.54-.36h2a38.8,38.8,0,0,1,9.11,2.37,13.71,13.71,0,0,0,2.92.73,5.78,5.78,0,0,0,4.55-.55l2.92-1.64a10.71,10.71,0,0,0,4-4.56c2.37-4,4.56-8.2,6.93-12.21,2.36-4.19,4.92-8.2,7.29-12.39L96,211.63c1.27-3.28,3.46-6,5.1-8.93A98.94,98.94,0,0,1,108.76,191a56.23,56.23,0,0,0,2.91-4.92c2.55-4.19,5.65-8.38,8.57-12.39l9.84-14.21a8.9,8.9,0,0,1,1.64-2c.36-.36.91-.18,1.28.18a13.74,13.74,0,0,1,1.27,2.19,3.13,3.13,0,0,1-.18,2.55l-1.64,4.38a4.26,4.26,0,0,1-.55.91,7.59,7.59,0,0,0-2.18,2.73c-4.2,6.38-8.39,12.58-12.22,18.95-2.91,4.93-6.37,9.3-8.93,14.22-.91,1.64-2,2.92-2.91,4.56-2,3.09-3.83,6.38-5.83,9.66-1.28,2.36-2.74,4.55-4,6.92-.73,1.09-1.46,2-1.1,3.46h-.18A8.1,8.1,0,0,0,92.35,231c-.36.36-.91,1.09-.54,1.27.54.37.73-.36,1.09-.73a6.56,6.56,0,0,1,1.28-1.82,2.58,2.58,0,0,0-.37,1.28c0,.91.55,1.27,1.28.91h.18c2.92-1.82,6.2-2.73,8.75-4.92,2-1.46,4-2.74,6-4,2.55-1.82,5.29-3.28,7.66-5.29,2-1.45,4.19-2.73,6.38-4,2.18-1.45,4.19-2.91,6.19-4.19,2.74-1.82,5.47-3.46,8-5.28,2.55-1.64,5.1-3.47,7.84-5.11,1.82-1.27,3.46-2.73,5.28-4.19a3.58,3.58,0,0,0,.91-.73,59.14,59.14,0,0,0,8.75-6.38,3.84,3.84,0,0,1,1.1-.72c1.09-.73,2.18-1.28,3.09-2l13.67-10.75a10.13,10.13,0,0,1,2.37-1.46,1.38,1.38,0,0,1,1.64.55A3.28,3.28,0,0,1,182.75,177.18ZM56.81,246.26c-.36-.19-.72-.55-1.27-.37v.18c-.18,0,0,.19,0,.19Zm5.11,1.82a2.51,2.51,0,0,0-2-.73A5.23,5.23,0,0,0,61.92,248.08Zm27.34,7.84a10.21,10.21,0,0,0,5.1,2.37C92.9,256.65,91.44,255.55,89.26,255.92Zm4.37-19.69a8.36,8.36,0,0,0,4-2.55,8.51,8.51,0,0,0-4,2.55,4.15,4.15,0,0,0-2.55,1.46A4.51,4.51,0,0,0,93.63,236.23Zm4.56,2a7,7,0,0,0-3.28,1.09,1.89,1.89,0,0,0-.73,1.46c-.55,0-.92.18-1.46.18-.91.37-1.64,1.09-1.28,1.28.73.18,1.1-.37,1.64-.55a4.91,4.91,0,0,1,1.1-.91C95.45,239.88,97.09,239.51,98.19,238.24Zm-2.74,20.41a.66.66,0,0,0-.54-.18l.36.36c.18.18.18.18.36,0A.18.18,0,0,0,95.45,258.65Zm3.28-36.45-.54.36C98.37,222.38,98.55,222.2,98.73,222.2Zm10.94,4a3.94,3.94,0,0,0-1.46.91c-1.82.55-3.28,1.82-4.92,2.55l-.55.55v.36a7.73,7.73,0,0,0-3.28,2,6.47,6.47,0,0,0,3.28-1.82,16.11,16.11,0,0,0,5.47-3.65A4,4,0,0,0,109.67,226.21ZM100,260.47a.18.18,0,0,0,.18.18v-.18Zm2.55-25.7c-.18.37-.36.55-.36.92C102.38,235.32,102.56,235.14,102.56,234.77Zm1.28-.18a.63.63,0,0,1-.37-.18.83.83,0,0,0-.55.18c0,.18.19.18.55.18A.59.59,0,0,0,103.84,234.59Zm2.36,29.35.19-.19c0-.18-.55-.54-.91-.54a.18.18,0,0,0-.19.18C105.11,263.57,105.66,263.94,106.2,263.94Zm2-31.72a7.12,7.12,0,0,0-2,.91A2.93,2.93,0,0,0,108.21,232.22Zm4-2.55a1.11,1.11,0,0,0-.73.18.62.62,0,0,1-.36.19c.18,0,.36.18.54,0C111.85,230,112,229.85,112.22,229.67Zm9.84-11.3a1.88,1.88,0,0,0-1.28.73,23,23,0,0,0-4.92,2v.54c-.72.73-1.64,1.1-2.18,2a3.82,3.82,0,0,0-1.46.91,3,3,0,0,0,1.64-.91c2.55-.91,4.74-2.74,6.92-4.56A4.28,4.28,0,0,0,122.06,218.37Zm-5.28,8.2c-.55.37-1.1.55-1.46,1.1a3.3,3.3,0,0,0-2.55,1.46,4.15,4.15,0,0,0,2.55-1.46A2.93,2.93,0,0,0,116.78,226.57ZM113.49,267h.19v-.18Zm13.31-51.94a4.76,4.76,0,0,0-2.92,2,2.86,2.86,0,0,0-1.27.73,1.86,1.86,0,0,0,1.27-.73A5.31,5.31,0,0,0,126.8,215.09Zm-2.73,56.5a.18.18,0,0,1,.18.18.18.18,0,0,0,.18-.18l-.18-.18A.18.18,0,0,1,124.07,271.59Zm3.09,1.82c.37.37,1.28.73,1.64.55a.66.66,0,0,0,.19-.55,1.36,1.36,0,0,0-1.1-.36c-.18,0-.36-.18-.54,0A.62.62,0,0,0,127.16,273.41Zm.73-53.22h-.18l.18-.18c.37,0,.55-.18.91-.36Zm3.47-8.2a5.63,5.63,0,0,0-2.56,1.64A6.12,6.12,0,0,0,131.36,212Zm-.55-41.73a2.48,2.48,0,0,1-.37,1.09A2.62,2.62,0,0,1,130.81,170.26Zm.55,46.84h1.09C132.08,217.28,131.72,218,131.36,217.1Zm.54,58.32c2.92,2,6,2.91,9.48,4a4.46,4.46,0,0,0-2-1.64,21.94,21.94,0,0,1-3.64-1.46A9.75,9.75,0,0,0,131.9,275.42Zm2.74-65.8-1.28.92A2.91,2.91,0,0,0,134.64,209.62Zm1.27,71.45c-.18-.19-.18-.37-.36-.37-.18-.18-.37-.18-.73-.18l-.55-.55c-.55-.18-.91-.18-.73,0s.37.37.55.37a1.39,1.39,0,0,0,.73.18c.18.18.36.36.55.36A.64.64,0,0,0,135.91,281.07Zm1.82-73.45a2.08,2.08,0,0,0-1.27.91A2.05,2.05,0,0,0,137.73,207.62Zm1.64-1.09a2.08,2.08,0,0,0-1.27.91A3.21,3.21,0,0,0,139.37,206.53Zm.55-.55a4,4,0,0,0,1.46-.91A2.85,2.85,0,0,0,139.92,206Zm3.1-2a2.3,2.3,0,0,0-1.46,1.1A3.79,3.79,0,0,0,143,204Zm-1.46,75.46c1.82,1.09,4,1.45,5.83,2.73a6.78,6.78,0,0,0,4.92,1.28,5.32,5.32,0,0,0-2-1.1c-1.82-.91-3.83-1.64-5.65-2.37A6.53,6.53,0,0,0,141.56,279.43Zm3.83-71.81a.18.18,0,0,1,.18-.18Zm5.83,79.83a11.36,11.36,0,0,0-2.19-.92A5.72,5.72,0,0,0,151.22,287.45ZM151,198.14h-.37a3.45,3.45,0,0,0-1.09,1.28,5.62,5.62,0,0,0,1.28-.91C151,198.51,151,198.32,151,198.14Zm4.19,90.58a6.44,6.44,0,0,0-3.46-1.09A4.4,4.4,0,0,0,155.23,288.72ZM158.15,193c-.55,0-.73.55-1.1.91a4,4,0,0,0-1.45.91,3.85,3.85,0,0,0,1.45-.91C157.42,193.77,158.15,193.77,158.15,193Z"/><path d="M271.87,143.47a29.24,29.24,0,0,1-1.82,2.37c-.73,1.09-1.64,2.18-2.55,3.28h.18a16.41,16.41,0,0,0-6.2,6,4.26,4.26,0,0,0-1.64,1.1c-2,2-4.19,3.82-6,6a15.93,15.93,0,0,1-2.55,2.37c-3.29,3.28-6.57,6.56-9.85,10a2.59,2.59,0,0,0-1.27,2.55c0,.92-1.1,1.28-1.82,1.64a.7.7,0,0,0-1.1,0,14.91,14.91,0,0,0-2.91,2.92v.36h.54c.18,0,.37-.18.55-.36-1.09,1.46-2,2.92-3.46,3.65-.19-.37-.37-.73-.55-.55a19.64,19.64,0,0,0-5.29,4.92c-.36.36-.54.91-.91,1.27a3.62,3.62,0,0,0-1.45,2.19c-.55,1.46-2,2.37-3.47,3.28a2.91,2.91,0,0,0-1.27,1.28l-2.19,2.73a34.29,34.29,0,0,0-5.29,4.92l-1.64,1.46c-.18.18-.54.37-.72.55-1.1.54-1.28,2-2.37,2.73a5.41,5.41,0,0,0-2.56,2.37v.55a7.25,7.25,0,0,0-1.27.73,2.91,2.91,0,0,0-1.28,1.27v-.18l-.54.55A12.07,12.07,0,0,0,196.6,220c-2.37,1.46-4.19,3.83-6.2,5.83-4.19,4.38-8.2,8.75-12.21,13.13-1.09,1.27-1.82,2.37-2.73,3.64l-.55.55h.18l-.54.55a14.66,14.66,0,0,0-5.11,5.46,5.25,5.25,0,0,0,5.11-1.09,36.38,36.38,0,0,1,8.2-3.64,11.36,11.36,0,0,0,2.19-.92c.54-.18,1.09-.73,1.64-.91,4-1.09,7.65-2.91,11.84-3.28a9,9,0,0,1,2.19-.18,5.81,5.81,0,0,1,4.56,2.73,42.62,42.62,0,0,1,2,3.83c1.09,2.19,1.46,4.19-.18,6.38-.55.73-.91,1.64-1.46,2.55-.18.37-.36.73,0,.91.18.18.55-.18.73-.36.36-.37.73-.55.91-.91v.91c.18,1.46.73,1.82,2,1.27,3.28-1.27,6.74-2.73,9.84-4.19a39.14,39.14,0,0,1,9.84-3.28,20.67,20.67,0,0,0,2.37-.91,34.24,34.24,0,0,1,7.65-2.19,19.92,19.92,0,0,0,6.38-2c1.09-.55,1.64-.37,2.55.55.55.36.73,1.09-.18,1.63l-.73.73a16.1,16.1,0,0,0-2.91.37,148.53,148.53,0,0,0-19.51,5.65c-6.37,2.37-12.57,5.1-18.77,7.65a3.79,3.79,0,0,0-1.46.73c-.54.37-.36.73,0,1.1a5.38,5.38,0,0,1,2.56-.92,7.34,7.34,0,0,1-2.56.92c-.36.18-.54.36-.91.54,0,.18-.18.37-.18.55.18,0,.18.18.37.18a15.75,15.75,0,0,0,4.73-2.19,6.8,6.8,0,0,0,3.47-1.64h-1.46a7.37,7.37,0,0,1,3.46-1.45,3.11,3.11,0,0,0-.73.91,3.84,3.84,0,0,0,2.19-.91,21.19,21.19,0,0,0,7.29-2.92,14.2,14.2,0,0,0-2.73.36,26.58,26.58,0,0,1,8-2.91,9.31,9.31,0,0,1-2.36,1.09,15.29,15.29,0,0,0-2.37,1.28,15.34,15.34,0,0,0,2.73-.73c4.37-1.46,8.93-2.74,13.67-4l4.56-1.1c.54-.18,1.09-.36,1.27-.72,0-1.28.91-1.46,1.64-1.83,1.09,0,1.82.73,2.74,1.28s.91,1.27.54,2.37a2.6,2.6,0,0,0-.36,1.09c.36,1.28.36,1.46-.73,1.64-4,1.28-8.2,2.55-12.39,3.65a140.49,140.49,0,0,0-16.77,5.83c-6.38,2.55-12.58,5.47-19.14,7.84a8.65,8.65,0,0,1-3.1.73c-.36,0-.91,0-.91-.37.18-1.09-.54-1.09-1.27-1.27A3.33,3.33,0,0,1,193,267a34.65,34.65,0,0,1-.73-4.37,6.19,6.19,0,0,1,.91-4c1.09-1.82,2.18-3.46,3.1-5.29a5.43,5.43,0,0,0,1.09-2c0-.73-.37-1.46-1.09-1.28-.37,0-.55,0-.73.19a53.15,53.15,0,0,0-9.48,3.46,162.62,162.62,0,0,0-15.86,8.2q-5.19,2.73-10.38,4.92c-.19,0-.37.18-.55.18a5.38,5.38,0,0,1-6.93-1.27,5,5,0,0,1-1.27-2.37,12.52,12.52,0,0,0-1.1-3.46,4.18,4.18,0,0,1,.37-3.28,9.92,9.92,0,0,1,1.64-2.56c2.37-2.91,4.74-5.83,7.29-8.74a26.07,26.07,0,0,1,3.1-3.29c1.46-1.45,2.55-2.91,3.82-4.37a71,71,0,0,1,4.93-5.47,27.55,27.55,0,0,0,3.09-3.46,3,3,0,0,1,.73-.73c4.56-4,8.2-8.93,12.58-13.12a118.41,118.41,0,0,1,9.66-9.48c1.09-.91,2-2,3.1-2.91,5.64-4.74,10.75-10.39,16.22-15.31,4.55-4,8.74-8.39,13.3-12.4,2.73-2.55,5.47-5.28,8.2-7.65l2.55-2.55a38.08,38.08,0,0,1,4.74-4.56c1.09-.91,2.19-2,3.28-3.1,1.64-1.64,3.28-3.28,5.1-4.92,1.1-1.09,2.19-2.18,3.47-3.28A19.69,19.69,0,0,1,260,146.2a64.52,64.52,0,0,0,5.29-4.74l3.28-2.73a4.39,4.39,0,0,1,1.64-.73,1.37,1.37,0,0,1,1.28.91,11.9,11.9,0,0,1,.72,2.37A3.12,3.12,0,0,1,271.87,143.47ZM199.15,247.9c.18,0,.18-.19.37-.37A.48.48,0,0,0,199,247a9.69,9.69,0,0,0-3.1.72,110.3,110.3,0,0,0-21.32,9.12,145.78,145.78,0,0,1-15.13,7.65l-1.27.73s-.19.37,0,.37a.39.39,0,0,0,.36.36,2.6,2.6,0,0,0,1.09-.36,20.89,20.89,0,0,0,3.47-1.46l13.48-6.93a99.52,99.52,0,0,1,21-8.56C198.06,248.44,198.6,248.08,199.15,247.9Zm-36.81,11.3a.56.56,0,0,0,.36.18c1.64-.73,3.1-1.28,4.19-2.55a12,12,0,0,0-4.37,2C162.34,258.83,162.34,259.2,162.34,259.2Zm4.19-4.19a5,5,0,0,0-2.19,1.64v.18h.18c1.46-.18,2.56-1.1,3.83-1.64-.18.36-.18.73-.36,1.09A8.44,8.44,0,0,0,170.9,255c9.12-4.56,18.23-8.94,28.07-11.49a1.4,1.4,0,0,0,.91-.36c.37-.18.55-.37.55-.73-.18-.37-.18-.73-.55-.73a5.92,5.92,0,0,0-2.55.18,52,52,0,0,0-9.11,2.74C180.74,247.53,173.64,251.36,166.53,255Zm2.91-.19a2.44,2.44,0,0,1-1.09.37C168.72,255,169.08,255,169.44,254.82Zm1.1-.54-1.1.54a4.13,4.13,0,0,0,.92-.54l1.09-.55A3.69,3.69,0,0,0,170.54,254.28Zm2-1.1-1.09.55a4,4,0,0,0,.91-.55Zm.91-.36a2.55,2.55,0,0,1-1.09.36C172.73,253,173.09,253,173.45,252.82Zm1.46-9.11.18-.19v.19Zm.18-.19v-.36h.37Zm1.83-12.75a2.17,2.17,0,0,0-1.28,1.27v.18H176A2.56,2.56,0,0,0,176.92,230.77Zm4.74,18c-.37.18-.73.18-1.1.36.37-.18.55-.36.91-.36l1.1-.55A3.8,3.8,0,0,0,181.66,248.81Zm3.46-1.64-.18.18v-.18a2.62,2.62,0,0,1,1.09-.37Zm2.37-16.95V230l.54-.37Zm5.65,14a5.18,5.18,0,0,1-1.64.37C192,244.44,192.59,244.44,193.14,244.25Zm6,25.34c.73.36,1.28-.19,2-.37a1.4,1.4,0,0,0,.91-.36c5.47-1.83,10.57-4.38,15.85-6.56a110.18,110.18,0,0,1,13.67-4.93c4.38-1.45,8.93-2.55,13.31-3.82a4.17,4.17,0,0,0,2-.91.41.41,0,0,0,.37-.37,1,1,0,0,0-.73-.36,2,2,0,0,0-.91.18,196,196,0,0,0-24.79,7.84c-6.74,2.73-13.3,5.83-20.05,8.2C199.33,268.67,198.6,269.22,199.15,269.59Zm9.3-70.54a10.71,10.71,0,0,0-4.2,3.83,4.2,4.2,0,0,0,2.19-1.46A12.42,12.42,0,0,0,208.45,199.05Zm-1.83,62.33a9.53,9.53,0,0,1,3.65-1.64,21.14,21.14,0,0,0-2,1.64h-1.64Zm10.76-4.55-2.19,1.46h-1.46A6.43,6.43,0,0,1,217.38,256.83Zm-.19,0a6.45,6.45,0,0,1,2.56-1.1A6.31,6.31,0,0,1,217.19,256.83Zm13.67-5.11a6.31,6.31,0,0,1-3.1,1.1A9.18,9.18,0,0,1,230.86,251.72Zm2-.54a4.21,4.21,0,0,1-2,.54Zm-1.1-65.79h0Zm2.56,65.42a3.38,3.38,0,0,1-1.46.37ZM236,181.38c-.19.18-.37.36-.55.36C235.6,181.56,235.78,181.38,236,181.38Zm.36,68.89c.73-.19,1.28-.37,2-.55Zm5.65-1.46h.37a.57.57,0,0,0-.37.18h-.18C241.62,248.81,241.8,248.81,242,248.81Zm.37-.18h.36a.56.56,0,0,0-.36.18ZM261.48,156v-.91a1.39,1.39,0,0,0,.73-.36h.37v.36A4.65,4.65,0,0,1,261.48,156Z"/><path d="M323.26,247.53c0,.37-.18.73,0,1.1a2.21,2.21,0,0,1-.73,1.45,6.63,6.63,0,0,0-1.82,1.28c-1.09.73-2.37,1.28-3.1,2.37a6.36,6.36,0,0,0-1.64.73c-6.56,4-13.3,7.65-20,11.48a65.66,65.66,0,0,1-13.13,5.83,15.27,15.27,0,0,1-4.19.55,5,5,0,0,1-3.1-1.46,8.66,8.66,0,0,1-3.64-6.56,6.9,6.9,0,0,0-.55-3.28c-.36-.55-.73-.73-1.27-.55a19.5,19.5,0,0,0-1.83.91c-2.91,1.64-5.83,3.28-8.93,4.74-5.1,2.74-10.2,5.47-15.85,6.93a20.62,20.62,0,0,1-3.47.73,4.51,4.51,0,0,1-4-1.64c-.36-.55-.91-.91-1.27-1.46a7,7,0,0,1-2-4.56c-.18-.91-.18-1.82-.36-2.73a11.9,11.9,0,0,1,3.1-9.3,20.84,20.84,0,0,1,2-2.18A40.79,40.79,0,0,1,247.81,243a27.6,27.6,0,0,0,3.65-2.74,12.59,12.59,0,0,1,3.28-2.18,36.44,36.44,0,0,1,8.93-4.2.56.56,0,0,0,.36-.18,62.75,62.75,0,0,1,8.2-.55c2.55.37,4.19,2,5.47,4.2.36.73.73,1.82,1.09,2.73.37.55.55,1.28.91,1.82a.82.82,0,0,0,1.1.37c.18,0,.36-.19.73-.37,1.46-.36,2.73.18,2.91,1.64s.37,2.55,1.46,3.47a1.39,1.39,0,0,1,.37.91c.36.73-.37,1.27-.37,2-.18.73.73,1.28.73,2.19a1.79,1.79,0,0,1-.73.91c-2.37,1.64-3.1,4.37-4.37,6.74a.82.82,0,0,0,0,.91,1.57,1.57,0,0,0,.91.19,27.31,27.31,0,0,0,6.74-2.74c3.28-2,6.75-3.82,10-5.65l1.27-.54c2.92-2,6.2-3.28,9.11-5.11a9.92,9.92,0,0,1,2-.91,20.25,20.25,0,0,0,5.47-2.18,15.7,15.7,0,0,1,3.09-1.46.89.89,0,0,1,1.1.73,4.56,4.56,0,0,1-.73,1.64.69.69,0,0,1,.55.18C323.45,245,323.63,245.35,323.26,247.53Zm-83.1,20.78a13.06,13.06,0,0,0,4.37-1.09,2.36,2.36,0,0,0,1.64-2.37,2.56,2.56,0,0,0,3.46-.37l.91-.54a4.67,4.67,0,0,0-4.37.91,40.71,40.71,0,0,0-6.38,1.45c-.54,0-.91.37-.73.92C239.06,267.94,239.43,268.49,240.16,268.31Zm28.06-8.38c0-.37-.36-.37-.54-.37a1.1,1.1,0,0,0-.73.18,57.64,57.64,0,0,0-5.83,2.92,102,102,0,0,1-9.85,5.1,39.77,39.77,0,0,1-10.2,3.47l-1.1.54c-.18,0-.18.18-.18.37s.18.18.18.36h.92a11.65,11.65,0,0,0,4.37-.91,50.27,50.27,0,0,0,8.57-3.65l7.83-3.82a65.51,65.51,0,0,1,6-3.47c.18-.18.36-.18.36-.36A.56.56,0,0,0,268.22,259.93Zm-27.88,1.82a.63.63,0,0,0,.36-.18.19.19,0,0,1,.19-.19.65.65,0,0,0-.55.19Zm33-19.69a4.55,4.55,0,0,0-2.19-.18,22.71,22.71,0,0,0-12,4.92c-.18.19-.36.19-.36.37a6,6,0,0,0-2.37,1.27c-2.37,1.83-4.74,3.47-6.93,5.47s-4.37,4.19-6.38,6.38a1.58,1.58,0,0,0-.54,1.09c-.19.19,0,.55.18.73,0,.19.36.19.54.19a1.44,1.44,0,0,0,.92-.37,15.13,15.13,0,0,1,4-1.46,20.7,20.7,0,0,0,4.55-2.18,4,4,0,0,1,1.46-.92c3.64-2,7.29-4,11.12-5.83,1.82-1.09,3.64-2.19,5.46-3.46a14.37,14.37,0,0,0,3.47-4C274.78,243.16,274.42,242.43,273.33,242.06Zm-21.51,21.15c.18,0,.18-.19.36-.37h-.36a2.56,2.56,0,0,0-.73.55A1.41,1.41,0,0,1,251.82,263.21Zm3.28-21.51a6.58,6.58,0,0,0,3.65-2c.54-.19,1.09-.19,1.64-.37a100.93,100.93,0,0,1,10-2.37,8.07,8.07,0,0,0,1.82-.36.68.68,0,0,0,.18-.55c0-.36,0-.73-.36-.91-.36,0-.73-.18-1.09-.18a25.94,25.94,0,0,0-6.2,1.09,11.3,11.3,0,0,0-6,3.1v.55A6.55,6.55,0,0,0,255.1,241.7Zm17-1.82h-.55a24.44,24.44,0,0,0-9.66,2.55l-.54.55v.18c0,.18,0,.18.18.18a2.13,2.13,0,0,0,1.82-.36,37.92,37.92,0,0,1,7.84-2c.36,0,.73-.18,1.09-.18a.48.48,0,0,0,.55-.55A1,1,0,0,0,272.05,239.88Zm28.43,22.23c0-.54-.55-.36-.73-.36a5.71,5.71,0,0,0-2.37,1.09,13.27,13.27,0,0,1-2.73,1.64,26.71,26.71,0,0,0-6.2,2.74,25,25,0,0,1-7.83,2.55,4.29,4.29,0,0,0-1.46.36c-.18,0-.18.18-.18.37s0,.36.18.36l.73.18a8.41,8.41,0,0,0,4.37-.73,88.07,88.07,0,0,0,10.39-4.55l2.19-1.46a1.52,1.52,0,0,0,.54-1.46,3.13,3.13,0,0,0,2.55-.18C300.12,262.66,300.66,262.48,300.48,262.11Zm-20.78,3.1.37.18a5.86,5.86,0,0,0,2.55-.73.18.18,0,0,0,.18-.18l-.36-.36a5.86,5.86,0,0,0-2.55.73C279.7,264.85,279.7,265,279.7,265.21Zm.19.91c0,.18,0,.37.18.37a1.19,1.19,0,0,0,1.09-.19v-.36C280.8,265.76,280.07,265.76,279.89,266.12Zm16-7.29a2.79,2.79,0,0,0,1.45-1.09A4.4,4.4,0,0,0,295.93,258.83Zm23.14-13.12c-.18,0-.18,0-.36.18a.18.18,0,0,0-.19.18h.19Z"/><path d="M452.66,151.67a8.55,8.55,0,0,1-1.28,1.27,142.5,142.5,0,0,1-10.75,10.39l-1.64,1.1a19.42,19.42,0,0,0-5.47,4.73l-.54.55c-2.56,1.1-4.56,2.92-6.75,4.56L422.77,177a44.11,44.11,0,0,0-5.47,4.74h.18l-.54.55-.55.54a34.16,34.16,0,0,0-6.38,5.11,1.58,1.58,0,0,0-.54,1.09,4.17,4.17,0,0,1-2,2.92,13,13,0,0,0-3.64,3.46,4.44,4.44,0,0,1-1.64,1.46,33.88,33.88,0,0,0-6.2,5.46,11.34,11.34,0,0,1-3.28,2.56l.55-1.46c-.37.36-1.1.73-.55,1.46a31.73,31.73,0,0,0-4,4.55V210a24.77,24.77,0,0,0-4.19,3.46c-1.46,1.64-3.28,3.1-4.74,4.92a12.68,12.68,0,0,1-2.92,2.55c-.54.55-1.09.92-1.27,1.64a5,5,0,0,1-2.37,2.37,7.27,7.27,0,0,0-1.83,1.46c-2.55,2.55-5.28,5.29-7.83,8l-1.64,1.64a1.63,1.63,0,0,0-.37,1.64,23.16,23.16,0,0,0-6.74,6.56c-1.09,1.46-1.82,2.92-2.92,4.38h.19c-2.19,1.64-3.28,4-4.74,6.19-.18.37-.18.73-.37,1.28a1.14,1.14,0,0,0,.91,1.46H349a14.54,14.54,0,0,0,5.28-1.46c4.19-2.19,8.57-4.19,12.76-6.2a29.38,29.38,0,0,0,4-2.37,22.87,22.87,0,0,1,7.47-3.28,11.88,11.88,0,0,0,3.28-1.27A23.86,23.86,0,0,1,385,241.7c1.28-.73,2.74-1.27,4-2a1.57,1.57,0,0,1,1.1-.55c.73-.18,1.64.55,1.45,1.09-.36,1.28.19,1.82,1.1,2.37a1.32,1.32,0,0,1,.36,2c0,.36-.18.73,0,.91.19.36.73.54.73.73,0,.54-.73.73-1.09.91-8.39,4.37-16.59,8.93-25,13.48a95.11,95.11,0,0,1-11.66,5.29,22.75,22.75,0,0,1-9.12,1.82,8.9,8.9,0,0,1-8.38-5.65c-.36-.73-.55-1.64-.91-2.37-.18-.73-.91-.91-1.28-.36a3.7,3.7,0,0,1-2.73,1.09,3.32,3.32,0,0,0-1.64.73,51.64,51.64,0,0,1-12.94,4.56L314.51,267a6.3,6.3,0,0,1-7.47-5.1,23.7,23.7,0,0,1-.73-3.46,6.41,6.41,0,0,1,1.09-4.74,16.72,16.72,0,0,1,5.47-5.83,20.32,20.32,0,0,0,2-1.83c2.91-2.91,6.56-4.19,10.57-5.1a7.26,7.26,0,0,1,4.37.18,7.44,7.44,0,0,1,3.83,2.74,12.64,12.64,0,0,0,1.28,2.18,1.25,1.25,0,0,0,1.82.37c1.46-.73,3.1-1.64,4.55-2.55a18.44,18.44,0,0,0,4.38-4c2.91-3.46,5.65-6.93,8.93-10.21,1.64-1.46,2.73-3.46,4.37-4.92s3.28-3.1,4.92-4.74c.19-.18.37-.36.55-.36a17.58,17.58,0,0,0,4.92-4.74c1.82-2,3.64-3.83,5.47-5.65,2.91-3.1,6.19-5.83,8.93-8.93,2.91-2.92,5.83-5.65,8.93-8.2,5.65-4.56,10.75-9.84,16.58-14.22,2.37-2,4.74-3.82,7.29-5.83l.55-.36c5.29-4.56,11.3-8.39,16.77-12.76,1.64-1.28,3.1-2.37,4.74-3.46a10.63,10.63,0,0,0,1.64-1.28,38.2,38.2,0,0,1,8.38-5.83,6.65,6.65,0,0,1,2-.91c.37-.19.92-.37,1.1,0a.78.78,0,0,1-.18,1.09,11.82,11.82,0,0,1-1.46,1.46c.54,0,.91-.18,1.46-.18s1.09-.19,1.27.36C453.21,150.76,452.84,151.3,452.66,151.67ZM331.28,259.74l-.18-.18-1.46.55A84.65,84.65,0,0,1,316,264.3l-2,.55a.34.34,0,0,0-.19.54c0,.19.19.19.37.37a2.32,2.32,0,0,0,1.09-.18,59.67,59.67,0,0,0,12.39-3.47,14,14,0,0,0,3.65-2Zm-15.49,1.1a33,33,0,0,0,9.66-2.74l.36-.36a1.11,1.11,0,0,0,.73-.18c.18,0,.18-.19.37-.19-.19,0-.37-.18-.55,0-.18,0-.37.19-.55.37h-1.46c.73-.37,1.46-.91,2.19-1.28a5.34,5.34,0,0,0,1.82-1.27,5.12,5.12,0,0,0-2.37.73l-5.28,1.64c-1.09.36-2.37.73-3.46,1.09-.55.18-1.1.36-.91.73C316.52,260.11,315.61,260.29,315.79,260.84Zm.91-12.21c.18-.19.36-.37.55-.37-.19,0-.37,0-.37.18C316.7,248.44,316.7,248.44,316.7,248.63Zm4.19-3.28c1.09-.19,2-.55,3.28-.73,0,.36-.18.91.37.73a30.22,30.22,0,0,0,3.82-.73,1.9,1.9,0,0,0,.37-1.1c.18-.36-.18-.36-.37-.54a13.15,13.15,0,0,0-7.47,2Zm2.37,7.29c0,.54-.18,1.09.37,1.09,2-.55,3.82-1.09,4.19-3.46a11,11,0,0,0-6,2.37.18.18,0,0,0-.18.18V253a.18.18,0,0,0,.18.18Zm5.65-4.38c-.18-.18-.36-.18-.73-.18a12.66,12.66,0,0,0-5.47,1.64c-.18,0-.36.36-.36.36,0,.37.36.37.55.37,1.82-.55,3.46-.91,5.1-1.46a.69.69,0,0,0,.55-.18A.38.38,0,0,0,328.91,248.26Zm-4.56-3.64h0Zm23.7,16.22a4.39,4.39,0,0,0,2.18-.19c.73,0,1.46-.36,2.19-.36.91-.18.18.18.18.36-.18.37.19.55.37.37a28.61,28.61,0,0,0,9.29-4.19,2.32,2.32,0,0,1-1.09-.18,14,14,0,0,1,2.92-1.46l-.55,1.09a7.58,7.58,0,0,0,2.55-1.64l-2,.55a7.56,7.56,0,0,1,1.27-1.1c2.92-1.45,5.83-2.91,8.57-4.37a5.47,5.47,0,0,1,1.64-.55c.18.18,0,.37.36.37l-.36-.37a6.67,6.67,0,0,1,2-.91.38.38,0,0,1,.55.37,4.05,4.05,0,0,0,2-.92l1.1-.54c.36-.18.54-.37.91-.55a2.58,2.58,0,0,0,2-.91,9.49,9.49,0,0,0,4.56-2v-.55c.18-.37.36-.91-.37-.91a1.08,1.08,0,0,0-.72.18c-5.11,2.37-10.39,4.37-15.31,7.11-3.28,2-6.93,3.64-10.39,5.47a65.12,65.12,0,0,1-12.76,5.1C348.78,260.29,348.23,260.29,348.05,260.84ZM383.4,249.9c-6.92,3.65-13.85,7.29-20.77,10.75a59.79,59.79,0,0,1-10.76,4.2,3,3,0,0,0-1.64.54.4.4,0,0,0-.36.37c.18,0,.36.18.55.18h.36a3.64,3.64,0,0,0,1.28-.18,36.54,36.54,0,0,0,8.56-2.92c3.28-1.46,6.38-3.28,9.66-4.92,6.2-3.28,12.58-6.56,18.77-10a2.56,2.56,0,0,0,1.46-.91v-.19a.18.18,0,0,0-.18-.18,1.36,1.36,0,0,0-.91.18C387.41,247.9,385.41,249,383.4,249.9ZM357,258.83c-.55.18-.91.18-1.46.37l1.46-.55a2.6,2.6,0,0,0,1.09-.36Zm4-2.18h.18a.18.18,0,0,1-.18.18c-.19.18-.55.18-.91.36A3.82,3.82,0,0,1,361,256.65Zm45.74-65.25-.18-.18v.18Z"/><path d="M457.22,247.53c0,.37-.19.73,0,1.1a2.26,2.26,0,0,1-.73,1.45,6.68,6.68,0,0,0-1.83,1.28c-1.09.73-2.37,1.28-3.09,2.37a6.08,6.08,0,0,0-1.64.73c-6.57,4-13.31,7.65-20.05,11.48a65.58,65.58,0,0,1-13.12,5.83,15.39,15.39,0,0,1-4.2.55,4.94,4.94,0,0,1-3.09-1.46,8.64,8.64,0,0,1-3.65-6.56,6.9,6.9,0,0,0-.55-3.28c-.36-.55-.73-.73-1.27-.55a18.09,18.09,0,0,0-1.82.91c-2.92,1.64-5.84,3.28-8.93,4.74-5.11,2.74-10.21,5.47-15.86,6.93a20.5,20.5,0,0,1-3.46.73,4.49,4.49,0,0,1-4-1.64c-.37-.55-.91-.91-1.28-1.46a7,7,0,0,1-2-4.56c-.19-.91-.19-1.82-.37-2.73a11.9,11.9,0,0,1,3.1-9.3,23.29,23.29,0,0,1,2-2.18A40.79,40.79,0,0,1,381.76,243a27.6,27.6,0,0,0,3.65-2.74,12.75,12.75,0,0,1,3.28-2.18,36.44,36.44,0,0,1,8.93-4.2.56.56,0,0,0,.36-.18,62.75,62.75,0,0,1,8.2-.55c2.56.37,4.2,2,5.47,4.2.37.73.73,1.82,1.1,2.73.36.55.54,1.28.91,1.82a.8.8,0,0,0,1.09.37c.18,0,.36-.19.73-.37,1.46-.36,2.73.18,2.92,1.64s.36,2.55,1.45,3.47a1.34,1.34,0,0,1,.37.91c.36.73-.37,1.27-.37,2-.18.73.73,1.28.73,2.19a1.79,1.79,0,0,1-.73.91c-2.37,1.64-3.09,4.37-4.37,6.74a.82.82,0,0,0,0,.91,1.58,1.58,0,0,0,.91.19,27.31,27.31,0,0,0,6.74-2.74c3.28-2,6.75-3.82,10-5.65l1.27-.54c2.92-2,6.2-3.28,9.12-5.11a9.61,9.61,0,0,1,2-.91,20,20,0,0,0,5.47-2.18,15.52,15.52,0,0,1,3.1-1.46.89.89,0,0,1,1.09.73,4.39,4.39,0,0,1-.73,1.64.68.68,0,0,1,.55.18C457.4,245,457.58,245.35,457.22,247.53Zm-83.11,20.78a13,13,0,0,0,4.37-1.09,2.35,2.35,0,0,0,1.64-2.37,2.57,2.57,0,0,0,3.47-.37l.91-.54a4.69,4.69,0,0,0-4.38.91,41,41,0,0,0-6.38,1.45c-.54,0-.91.37-.73.92C373,267.94,373.38,268.49,374.11,268.31Zm28.07-8.38c0-.37-.37-.37-.55-.37a1.11,1.11,0,0,0-.73.18,57.64,57.64,0,0,0-5.83,2.92,101.82,101.82,0,0,1-9.84,5.1A39.71,39.71,0,0,1,375,271.23l-1.09.54c-.19,0-.19.18-.19.37s.19.18.19.36h.91a11.65,11.65,0,0,0,4.37-.91,50.27,50.27,0,0,0,8.57-3.65l7.83-3.82a65.51,65.51,0,0,1,6-3.47c.18-.18.36-.18.36-.36A.54.54,0,0,0,402.18,259.93Zm-27.89,1.82a.67.67,0,0,0,.37-.18s0-.19.18-.19a.66.66,0,0,0-.55.19Zm33-19.69a4.55,4.55,0,0,0-2.19-.18,22.77,22.77,0,0,0-12,4.92c-.18.19-.36.19-.36.37a6.07,6.07,0,0,0-2.37,1.27c-2.37,1.83-4.74,3.47-6.93,5.47S379,258.1,377,260.29a1.58,1.58,0,0,0-.54,1.09c-.18.19,0,.55.18.73,0,.19.36.19.55.19a1.41,1.41,0,0,0,.91-.37,15.13,15.13,0,0,1,4-1.46,20.49,20.49,0,0,0,4.55-2.18,4.13,4.13,0,0,1,1.46-.92c3.65-2,7.29-4,11.12-5.83,1.82-1.09,3.64-2.19,5.47-3.46a14.49,14.49,0,0,0,3.46-4C408.74,243.16,408.37,242.43,407.28,242.06Zm-21.51,21.15c.18,0,.18-.19.37-.37h-.37a2.71,2.71,0,0,0-.73.55A1.41,1.41,0,0,1,385.77,263.21Zm3.28-21.51a6.55,6.55,0,0,0,3.65-2c.55-.19,1.09-.19,1.64-.37a100.93,100.93,0,0,1,10-2.37,8,8,0,0,0,1.82-.36.66.66,0,0,0,.19-.55c0-.36,0-.73-.37-.91-.36,0-.73-.18-1.09-.18a25.94,25.94,0,0,0-6.2,1.09,11.33,11.33,0,0,0-6,3.1v.55A6.55,6.55,0,0,0,389.05,241.7ZM406,239.88h-.54a24.35,24.35,0,0,0-9.66,2.55l-.55.55v.18c0,.18,0,.18.18.18a2.13,2.13,0,0,0,1.82-.36,38.08,38.08,0,0,1,7.84-2c.37,0,.73-.18,1.09-.18a.48.48,0,0,0,.55-.55A.94.94,0,0,0,406,239.88Zm28.43,22.23c0-.54-.54-.36-.73-.36a5.62,5.62,0,0,0-2.36,1.09,13.62,13.62,0,0,1-2.74,1.64,26.45,26.45,0,0,0-6.19,2.74,25.11,25.11,0,0,1-7.84,2.55,4.34,4.34,0,0,0-1.46.36c-.18,0-.18.18-.18.37s0,.36.18.36l.73.18a8.41,8.41,0,0,0,4.37-.73,88.07,88.07,0,0,0,10.39-4.55l2.19-1.46a1.5,1.5,0,0,0,.55-1.46,3.13,3.13,0,0,0,2.55-.18C434.07,262.66,434.62,262.48,434.43,262.11Zm-20.77,3.1.36.18a5.86,5.86,0,0,0,2.55-.73.18.18,0,0,0,.19-.18l-.37-.36a5.86,5.86,0,0,0-2.55.73C413.66,264.85,413.66,265,413.66,265.21Zm.18.91c0,.18,0,.37.18.37a1.18,1.18,0,0,0,1.09-.19v-.36C414.75,265.76,414,265.76,413.84,266.12Zm16-7.29a2.85,2.85,0,0,0,1.46-1.09A4.34,4.34,0,0,0,429.88,258.83ZM453,245.71c-.18,0-.18,0-.36.18a.18.18,0,0,0-.18.18h.18Z"/><path d="M587.16,188.85c-.18.54-.73.54-1.28.36a8.45,8.45,0,0,1-1.27-1.27,11.35,11.35,0,0,0-5.29-2.74,64,64,0,0,0-10-1.82c-5.65-.73-11.3-1.46-17.13-1.64a6.33,6.33,0,0,0-1.83-.18c-8-.18-16-.91-23.87-.91a7.33,7.33,0,0,0-3.46.73,29.94,29.94,0,0,1-4.2,1.09c-.54.18-1.27.55-.91,1.46.18.18,0,.54-.18.73L515,187.39c-.55.55-1.46-.18-1.83.55-.36.54.19,1.09-.18,1.64a5.64,5.64,0,0,1-1.64,2,1.42,1.42,0,0,0-.73,1.82h-.18l-2.73,2a3.89,3.89,0,0,0-1.83,2h.19a18.9,18.9,0,0,0-6,6l-.54.54c-.73.73-1.65,1.28-2.37,2-3.1,3.1-6.2,6.2-9.12,9.66a7,7,0,0,0-1.64,2.37,6.18,6.18,0,0,0-1.45,1.64c-.19,0-.37.18-.55.36a10.58,10.58,0,0,0-1.46,1.46l-8.38,8.75a15.27,15.27,0,0,0-2,2.73,46.26,46.26,0,0,1-5.83,6.2v-.91L466,239c-.36.36-.18.73.18.73-.18.54-.36.91-.91,1.09-2.55,1.09-3.64,3.28-4.92,5.47a8,8,0,0,1-2.19,3.28c-.54.36-.36.91,0,1.27-.18.73-.91,1.1-1.64,1.46a1,1,0,0,0-.72,1.09,3.7,3.7,0,0,1-1.1,2.92c-.73-.36-.91-.18-1.09.37v.72c0,.73-.18,1.64-.18,2.37a.72.72,0,0,0,.91.91,2.32,2.32,0,0,0,1.09-.18c2.19-.73,4.56-1.09,6.56-2.37l.73-.18c5.29-1.27,10.21-3.46,15.67-4.19a21.4,21.4,0,0,0,3.65-.91c3.83-1.64,7.65-2.55,11.48-3.83,1.82-.55,3.83-.73,5.65-1.09a.34.34,0,0,1,.55,0c.18,0,.54.18.54.36a1.11,1.11,0,0,1-.18.73c-.54.18-1.09.55-1.64.73-8.75,3.1-17.68,6-26.79,8.57a153.55,153.55,0,0,0-19.5,6.56l-1.46.54c-.18.19-.36.37-.18.73.18.18.36.18.73.18l-1.1,1.1a55.69,55.69,0,0,0,12.22-4.56h-.19a2.94,2.94,0,0,0,1.64-.54,3.44,3.44,0,0,0,1.46-.37,3.34,3.34,0,0,0-1.46.37h-1.64a13.31,13.31,0,0,1,4.56-1.46v.54a.63.63,0,0,0,.36-.18c.19-.36-.18-.36-.36-.36a54,54,0,0,1,10.57-3.1v.55a.62.62,0,0,0,.36-.19c0-.18-.18-.18-.36-.18a15.49,15.49,0,0,1,4.56-1.64l-.91,1.09a7.93,7.93,0,0,0,2.91-1.09,4.34,4.34,0,0,0,1.46-.36l1.64-.55a2.06,2.06,0,0,0,1.46-.55l1.46-.54a3,3,0,0,0,1.64-.55v.18a20.06,20.06,0,0,0,3.09-.91l5.65-1.82c.55-.18,1.28-.18,1.83-.37.36,0,.54.37.73.55a1.08,1.08,0,0,1-.19,1.28,4.94,4.94,0,0,1-2.18,1.09c-4,1.46-8,3.1-12,4.37-6.56,2.37-13.12,4.56-19.87,6.38-3.83,1.1-7.65,2.55-11.48,4-2,.73-4.19,1.64-6.38,2.37l-1.64.55a1.36,1.36,0,0,0-.36.73c0,.18.36.36.54.36a3.61,3.61,0,0,1,1.28-.18c1.46-.55,2.73-.91,4-1.46,7.47-2.92,14.94-5.47,22.6-7.65,8-2.19,15.85-5.29,23.51-8.2a5.12,5.12,0,0,1,2.37-.73c0,.54-.55.73-.91.91-2.19.91-4.38,1.82-6.56,2.55l-5.65,2.19a67.78,67.78,0,0,1-6.38,2.37,130.58,130.58,0,0,1-14.4,4.37c-3.46.91-6.74,2.19-10.21,3.46a51.67,51.67,0,0,1-8.38,3.1c-1.46.55-2.92.91-4.37,0-1.83-.91-3.47-2-4.2-4a31.79,31.79,0,0,1-1.27-3.83,6.08,6.08,0,0,1,.36-4.74,62.9,62.9,0,0,1,3.1-6c2.37-3.64,4.74-7.29,7.29-10.93a25.82,25.82,0,0,1,2.55-3.65c2.74-3.64,5.65-7.11,8.39-10.75l.54-.55c3.47-2.73,5.65-6.56,8.57-9.84,2.37-2.55,4.55-5.1,7.11-7.47a25.59,25.59,0,0,0,4.19-4.56,7.51,7.51,0,0,1,1.64-1.82,61.18,61.18,0,0,0,4.74-4.92,6.92,6.92,0,0,1,1.27-1.1c2.92-2,5.11-4.73,7.29-7.29a24.62,24.62,0,0,1,3.65-3.82c1.82-1.83,3.46-3.47,5.1-5.29a2.6,2.6,0,0,0,.36-1.09,1,1,0,0,0-.72-1.28h-1.64c-8.39-.18-16.77.18-25.16.55-7.47.55-14.94,1.27-22.23,2.19q-9.57,1.36-18.59,3.28c-4.19.73-8,1.82-12,2.91a18.54,18.54,0,0,1-3.46.73,6.31,6.31,0,0,1,2.55-1.09c6-1.82,12-3.1,18-4.38q8.76-1.64,17.5-2.73c4.56-.36,9.3-.91,14-1.28,5.47-.36,11.12-.72,16.77-.91h16c.91,0,1.27-.36,1.09-.73-.18-.54-.73-.54-1.09-.54h-2c-7.83-.18-15.67,0-23.51.36-16,.91-32.07,2.74-47.75,6.56a119.62,119.62,0,0,0-13.67,4h-.36c-1.82.73-2.37.18-2.37-1.64a2.23,2.23,0,0,0-.36-1.46c-.73-.72-.19-1.27.54-1.64a10.66,10.66,0,0,1,2.55-.91c2.37-.73,4.74-1.64,7.11-2.55a33.7,33.7,0,0,1,5.65-1.64l14.22-3.28c2.73-.55,5.28-1.09,8-1.46,3.46-.36,6.74-.91,10.2-1.46.73,0,1.46-.18,2.19-.18a31.58,31.58,0,0,0,7.11-.54,5.06,5.06,0,0,1,1.64-.37c4,.37,8-.55,12-.36,2,0,3.82-.37,5.83-.37a15.81,15.81,0,0,1,2.91.18,12.34,12.34,0,0,0,4.56-.18,29.9,29.9,0,0,1,4-.18,71,71,0,0,0,8.75,0,9.8,9.8,0,0,0,7.47-3.28,88.86,88.86,0,0,1,8.38-8.2l4.38-3.83c3.83-3.28,7.65-6.56,11.84-9.66,2.74-2,5.47-3.83,8-6l7.29-4.92a34.56,34.56,0,0,1,3.65-1.83,2.11,2.11,0,0,1,2.55,1.1c1.46,2.73,1.46,3.46-.91,5.65a10.58,10.58,0,0,0-1.46,1.46l-.55.54V142a23.52,23.52,0,0,0-3.82,2.55c-.73.55-1.64,1.09-1.83,2.19,0,.73-.54,1.09-.91,1.46a10.51,10.51,0,0,1-3.82,2.37c-.73.18-1.46.36-1.64,1.27a1.76,1.76,0,0,1-1.64,1.09,4.87,4.87,0,0,0-3.47,2.19,40.91,40.91,0,0,0-6,5.1l-.91.92-.55.54c-1.28.73-2.55,1.28-2.73,2.92,0,.73-.55,1.09-1.1,1.64a9.23,9.23,0,0,1-2.18,1.46c-.55-.19-.55-.19-.55.54-.18.19-.18.55-.37.73-.72,1.64-.54,2.37,1.28,2.92a7,7,0,0,0,2.73.18c3.1,0,6,.37,9.12.55,4.19,0,8.38.54,12.75.91a16.07,16.07,0,0,1,2.92.36c.91,0,1.64.19,2.55.19a66.68,66.68,0,0,1,17,3.46,5.65,5.65,0,0,1,4.38,4.92c.18.91.54,1.82.72,2.92A5.81,5.81,0,0,1,587.16,188.85Zm-166.94,1.82a4.38,4.38,0,0,1,2.73-.73A5.38,5.38,0,0,1,420.22,190.67Zm93.67-16.58c0-.19,0-.19-.18-.19a1.4,1.4,0,0,0-.91-.36c-2,0-4-.18-6-.18-8.38.18-16.94.18-25.33.73-5.28.36-10.39.54-15.49,1.27q-9.84,1.09-19.14,2.74c-6.56,1.27-12.94,2.73-19.13,4.55a26.15,26.15,0,0,0-3.28,1.46c-.55.18-.91,1.28-.73,1.46.55.36.91,0,1.27,0l1.46-.55a181,181,0,0,1,19.5-4.74c7.11-1.27,14-2.18,21.14-2.91a126.93,126.93,0,0,1,16.59-1.28c8.56-.36,17.31-.73,25.88-.55.73,0,1.46-.18,2.37-.18.18,0,.36,0,.36-.36,0-.19-.18-.19-.36-.37h-16a.18.18,0,0,1-.18-.18h15.85a4.55,4.55,0,0,0,2.19-.18A.18.18,0,0,0,513.89,174.09Zm-61.23,91.85a5.78,5.78,0,0,1-1.46.36C451.56,266.12,452.11,266.12,452.66,265.94Zm1.09-.55-1.09.55a3.69,3.69,0,0,0,.91-.55Zm1.46-.54a10.57,10.57,0,0,1,1.46-.55Zm2.55-.91a2.64,2.64,0,0,1-1.09.36A2.55,2.55,0,0,1,457.76,263.94Zm4.37-1.64v.54h-1.45Zm4-22.6.55-.55c-.18.18-.36.36-.36.55Zm9.48-64.16h.55c-.19,0-.37.19-.73,0Zm3.1,40.46c-.18.37-.37.37-.55.73-.18.18-.73.37-.36.55,0,.18.36-.18.54-.37A1.34,1.34,0,0,0,478.72,216Zm5.1,40.28h-2l2-.55Zm1.46-.55h-1.46a3.45,3.45,0,0,0,1.46-.36Zm1.64-.36h-1.64l1.64-.55Zm-1.46.36a.18.18,0,0,0-.18.19v-.19Zm2.92-.91h-1.46l1.46-.54Zm1.46-.54h-1.46l1.46-.55Zm18.22-68.35a3.22,3.22,0,0,0-1.64,1.46,2.22,2.22,0,0,0-.91.91,30,30,0,0,1,2.55-2.37Zm2.37-2.55a5.48,5.48,0,0,0-1.46,1.46A2,2,0,0,0,510.43,183.38Zm5.65,1.64c-.18,0-.36.18-.55.37a.67.67,0,0,1,.55-.19Zm65.25-.91c-.37-1.09-1.28-.73-1.83-1.09a3,3,0,0,0-1.27-.19,125.85,125.85,0,0,0-18.41-2.55c-7.65-.54-15.31-1.09-22.6-1.46-3.64-.18-6.92-.18-10-.18-.73,0-1.46-.18-1.83.55-.36.36.55.73,1.83.73l14.76.54,12.94.55c8.2.73,16.4,1.46,24.42,2.92A2.55,2.55,0,0,0,581.33,184.11Zm.72-4.56-.91-.54a23,23,0,0,0-5.1-1.28c-4.19-.55-8.38-1.46-12.57-1.82-4.74-.37-9.3-.91-13.86-1.28-5.46-.36-10.93-.54-16.58-.73-.91,0-1.82-.36-2.55.55.54.91,1.64.36,2.37.55h1.64a4.62,4.62,0,0,1-1.46.18h-2.37c-.18,0-.18.18-.36.36.18,0,.18.19.36.19a1.38,1.38,0,0,0,.91.18c5.83.36,11.48.73,17.32.91,8.2.36,16.21,1.28,24.23,2.19,1.1.18,2.19.18,3.28.36.55,0,.92.37,1.46.37a9.86,9.86,0,0,0,4,.54l.18-.18C582.24,179.92,582.05,179.74,582.05,179.55Zm-49.93-16.76c1.82-1.1,3.28-2,4.37-4A12.79,12.79,0,0,0,532.12,162.79Zm21.69-17.68a2.12,2.12,0,0,0,1.27-.91A2.05,2.05,0,0,0,553.81,145.11Zm2-1.46a2.87,2.87,0,0,0,1.46-1.09A2.81,2.81,0,0,0,555.81,143.65Zm1.46,5.1h-.18v.19C557.09,148.75,557.09,148.75,557.27,148.75Zm.55-6.74a9.12,9.12,0,0,0,4-2.92A12.58,12.58,0,0,0,557.82,142Zm5.65-4a7.49,7.49,0,0,0,3.64-2.19c.18,0,.18-.36.18-.36a.66.66,0,0,0-.54-.18A11.92,11.92,0,0,0,563.47,138Z"/><path d="M580.23,247.53c0,.37-.18.73,0,1.1a2.21,2.21,0,0,1-.73,1.45,6.48,6.48,0,0,0-1.82,1.28c-1.1.73-2.37,1.28-3.1,2.37a6.21,6.21,0,0,0-1.64.73c-6.56,4-13.3,7.65-20.05,11.48a65.32,65.32,0,0,1-13.12,5.83,15.32,15.32,0,0,1-4.19.55,4.94,4.94,0,0,1-3.1-1.46,8.63,8.63,0,0,1-3.64-6.56,6.9,6.9,0,0,0-.55-3.28c-.37-.55-.73-.73-1.28-.55a19.23,19.23,0,0,0-1.82.91c-2.92,1.64-5.83,3.28-8.93,4.74-5.1,2.74-10.21,5.47-15.86,6.93a20.29,20.29,0,0,1-3.46.73,4.49,4.49,0,0,1-4-1.64c-.36-.55-.91-.91-1.27-1.46a7,7,0,0,1-2-4.56c-.18-.91-.18-1.82-.36-2.73a11.82,11.82,0,0,1,3.1-9.3,20.84,20.84,0,0,1,2-2.18A40.79,40.79,0,0,1,504.78,243a27.5,27.5,0,0,0,3.64-2.74,12.75,12.75,0,0,1,3.28-2.18,36.62,36.62,0,0,1,8.93-4.2.57.57,0,0,0,.37-.18,62.75,62.75,0,0,1,8.2-.55c2.55.37,4.19,2,5.47,4.2.36.73.73,1.82,1.09,2.73.37.55.55,1.28.91,1.82a.81.81,0,0,0,1.09.37c.19,0,.37-.19.73-.37,1.46-.36,2.74.18,2.92,1.64s.36,2.55,1.46,3.47a1.38,1.38,0,0,1,.36.91c.37.73-.36,1.27-.36,2-.18.73.73,1.28.73,2.19a1.84,1.84,0,0,1-.73.91c-2.37,1.64-3.1,4.37-4.38,6.74a.82.82,0,0,0,0,.91,1.61,1.61,0,0,0,.92.19,27.63,27.63,0,0,0,6.74-2.74c3.28-2,6.74-3.82,10-5.65l1.28-.54c2.91-2,6.19-3.28,9.11-5.11a9.92,9.92,0,0,1,2-.91,20.06,20.06,0,0,0,5.46-2.18,15.79,15.79,0,0,1,3.1-1.46.88.88,0,0,1,1.09.73,4.55,4.55,0,0,1-.72,1.64.66.66,0,0,1,.54.18C580.41,245,580.59,245.35,580.23,247.53Zm-83.11,20.78a13.05,13.05,0,0,0,4.38-1.09,2.36,2.36,0,0,0,1.64-2.37,2.56,2.56,0,0,0,3.46-.37l.91-.54a4.67,4.67,0,0,0-4.37.91,40.71,40.71,0,0,0-6.38,1.45c-.55,0-.91.37-.73.92C496,267.94,496.39,268.49,497.12,268.31Zm28.07-8.38c0-.37-.36-.37-.55-.37a1.12,1.12,0,0,0-.73.18,58.71,58.71,0,0,0-5.83,2.92,101.82,101.82,0,0,1-9.84,5.1A39.71,39.71,0,0,1,498,271.23l-1.09.54c-.18,0-.18.18-.18.37s.18.18.18.36h.91a11.71,11.71,0,0,0,4.38-.91,50.17,50.17,0,0,0,8.56-3.65l7.84-3.82a65.33,65.33,0,0,1,6-3.47c.19-.18.37-.18.37-.36A.56.56,0,0,0,525.19,259.93Zm-27.88,1.82a.63.63,0,0,0,.36-.18s0-.19.18-.19a.64.64,0,0,0-.54.19Zm33-19.69a4.51,4.51,0,0,0-2.18-.18,22.71,22.71,0,0,0-12,4.92c-.19.19-.37.19-.37.37a6.07,6.07,0,0,0-2.37,1.27c-2.37,1.83-4.74,3.47-6.92,5.47S502,258.1,500,260.29a1.59,1.59,0,0,0-.55,1.09c-.18.19,0,.55.19.73,0,.19.36.19.54.19a1.39,1.39,0,0,0,.91-.37,15.26,15.26,0,0,1,4-1.46,20.77,20.77,0,0,0,4.56-2.18,4,4,0,0,1,1.46-.92c3.64-2,7.29-4,11.11-5.83,1.83-1.09,3.65-2.19,5.47-3.46a14.33,14.33,0,0,0,3.46-4C531.75,243.16,531.39,242.43,530.29,242.06Zm-21.5,21.15c.18,0,.18-.19.36-.37h-.36a2.42,2.42,0,0,0-.73.55A1.37,1.37,0,0,1,508.79,263.21Zm3.28-21.51a6.52,6.52,0,0,0,3.64-2c.55-.19,1.1-.19,1.64-.37a101.12,101.12,0,0,1,10-2.37,8.17,8.17,0,0,0,1.82-.36.68.68,0,0,0,.18-.55c0-.36,0-.73-.36-.91-.37,0-.73-.18-1.1-.18a25.87,25.87,0,0,0-6.19,1.09,11.33,11.33,0,0,0-6,3.1v.55A6.56,6.56,0,0,0,512.07,241.7ZM529,239.88h-.55a24.44,24.44,0,0,0-9.66,2.55l-.55.55v.18c0,.18,0,.18.19.18a2.14,2.14,0,0,0,1.82-.36,37.76,37.76,0,0,1,7.84-2c.36,0,.73-.18,1.09-.18a.49.49,0,0,0,.55-.55A1,1,0,0,0,529,239.88Zm28.43,22.23c0-.54-.55-.36-.73-.36a5.71,5.71,0,0,0-2.37,1.09,13.27,13.27,0,0,1-2.73,1.64,26.52,26.52,0,0,0-6.2,2.74,24.94,24.94,0,0,1-7.84,2.55,4.29,4.29,0,0,0-1.45.36c-.19,0-.19.18-.19.37s0,.36.19.36l.72.18a8.46,8.46,0,0,0,4.38-.73,88.8,88.8,0,0,0,10.39-4.55l2.18-1.46a1.5,1.5,0,0,0,.55-1.46,3.13,3.13,0,0,0,2.55-.18C557.08,262.66,557.63,262.48,557.45,262.11Zm-20.78,3.1.37.18a5.86,5.86,0,0,0,2.55-.73.18.18,0,0,0,.18-.18l-.36-.36a5.86,5.86,0,0,0-2.56.73C536.67,264.85,536.67,265,536.67,265.21Zm.18.91c0,.18,0,.37.19.37.36.18.72,0,1.09-.19v-.36C537.76,265.76,537,265.76,536.85,266.12Zm16-7.29a2.77,2.77,0,0,0,1.46-1.09A4.44,4.44,0,0,0,552.89,258.83ZM576,245.71c-.18,0-.18,0-.37.18a.18.18,0,0,0-.18.18h.18Z"/><path d="M651.12,258.65c-.54.18-1.09.18-1.64.36a141.36,141.36,0,0,1-17.68,1.83c-2,.18-4.19.36-6.19.36-3.46.18-6.93-.36-10.39-.55H613a.62.62,0,0,0-.36.19.39.39,0,0,0,.36.36,2.66,2.66,0,0,0,1.1.37,33.29,33.29,0,0,0,8.56.91,87.94,87.94,0,0,0,12-.37c3.83-.54,7.66-.91,11.48-1.27,1.28-.19,2.55-.55,3.83-.73h.36c0,.18,0,.36-.18.36l-.54.37a9.28,9.28,0,0,1-2.19.36,176.65,176.65,0,0,1-25.88,2.19,58.59,58.59,0,0,1-11.3-1.09,17.4,17.4,0,0,1-8.57-4.74,11.32,11.32,0,0,1-3.09-5.84c-.37-2.37-1.28-2.73-3.1-1.09l-2.74,2.19-.54.54h.54l-.54.55a25.3,25.3,0,0,0-4,2.74,3.7,3.7,0,0,1-1.46.72l-1.09,1.1a2.24,2.24,0,0,1-.92.91h-.54a3.82,3.82,0,0,0-.91,1.46c-.19,1.09-1.1,1.46-1.64,2.18a1.57,1.57,0,0,1-1.1.55c-.73-.18-1.27.18-1.27.91a4.8,4.8,0,0,1-1.28,2,61.94,61.94,0,0,1-6.92,6.92c-.55.73-2.37.37-2.74-.73-.36-.54-.54-1.09-1.27-1.45a1.28,1.28,0,0,1-.73-1.64,10,10,0,0,0-.37-4,4.24,4.24,0,0,1,.73-2.56c2.55-4.37,5.1-8.56,7.66-12.75a39.49,39.49,0,0,1,2.36-3.65,1.29,1.29,0,0,1,2.37.37c.19.36.19.91.37,1.27.55.91,1.27,1.28,2.19.73a6.42,6.42,0,0,0,1.45-.91c1.64-1.46,3.28-2.92,4.92-4.19,2.37-2,4.74-4.19,7.66-5.47.73-.18,1.46-.55,2.37-.73A2.21,2.21,0,0,1,601,239c1.28,2.55,2.56,4.92,2.74,7.83a3.61,3.61,0,0,0,.18,1.28,2.13,2.13,0,0,0,1.46,2,4.42,4.42,0,0,1,.91.55A43.66,43.66,0,0,0,619.05,253c1.64,0,3.28.18,4.92.18a7,7,0,0,0,2.73,0c1.82-.18,3.83-.18,5.65-.18,4.74.18,9.48-.73,14.22-.55a22.77,22.77,0,0,0,3.1-.54h1.64a.92.92,0,0,1,.36,1.64,3.27,3.27,0,0,1-1.82.73c-.55.18-1.1.18-1.64.36a.63.63,0,0,0-.37.18.48.48,0,0,0,.55.55,6.92,6.92,0,0,1,2-.18c1.46-.37,2.19.36,2.37,1.27S652.22,258.1,651.12,258.65Zm-53.58-18-.18-.18v.18Zm46.66,14.58c-3.46.18-6.75.54-10,.54a167.71,167.71,0,0,1-19.31-.18c-.37-.18-.92-.36-.92.37,1.46.73,3.1.54,4.56,1.09h-2.37a8.29,8.29,0,0,0,4.19.91,99.07,99.07,0,0,0,18-.55c.36-.18.73-.18,1.09-.36h-7.29a16.49,16.49,0,0,1,3.1-.55c2.55-.18,5.1-.36,7.47-.73.36,0,.55,0,.73-.18C643.83,255.55,644.2,255.55,644.2,255.19Zm-12,1.82a12.44,12.44,0,0,1-2.55.36h-8.75a10.8,10.8,0,0,1-2.37-.36C623.06,257.19,627.61,257,632.17,257Zm9.48-.18a.69.69,0,0,0-.55-.18,1.11,1.11,0,0,0-.73.18Z"/><path d="M704.34,257.19a2.62,2.62,0,0,1-1.09.37,5.32,5.32,0,0,0-2.37.91,169.09,169.09,0,0,1-16.4,7.47c-6.75,2.55-13.49,5.1-20.6,6.56a64.64,64.64,0,0,1-13.3,1.28,14.93,14.93,0,0,1-10-4,14.65,14.65,0,0,1-4-8.2c-.18-2-.18-4.2-.18-6.2a18.6,18.6,0,0,1,4.38-11.85,56.43,56.43,0,0,1,7.47-7.29c2.55-2.18,5.47-2.73,8.56-2.91a5.68,5.68,0,0,1,5.11,2.73,19.49,19.49,0,0,1,3.1,9.11,6.36,6.36,0,0,1-1.83,5.29,16.18,16.18,0,0,0-2.91,4,4.72,4.72,0,0,1-2,1.82A65.42,65.42,0,0,1,647.11,261a6.22,6.22,0,0,1-1.82.18c-.18,0-.54,0-.54-.36,0-.19.36-.37.54-.37a2.36,2.36,0,0,1,1.1-.18,27.53,27.53,0,0,0,7.29-2.73l.72-.55v-.36a.18.18,0,0,0-.18-.19c-.54.19-1.09.19-1.46.37-2.55,1.09-5.28,1.82-8.2,2.73a3.23,3.23,0,0,0-1.27.37,1.1,1.1,0,0,0-.18,1.82,3.67,3.67,0,0,0,1.45.73,20.83,20.83,0,0,0,6.75.91c3.09-.18,6.38-.55,9.47-.91a50,50,0,0,0,8.93-2.37h.55c5.1-1.28,10-3.46,15-5.47l8.56-3.28c1.82-.55,3.65-1.28,5.47-2l1.64-.54c1.27-.37,2,.18,2,1.46a3.34,3.34,0,0,0,.92,2.18,1.57,1.57,0,0,1,.18,2.37c-.37.55-.37.91,0,1.28C704.16,256.46,704.16,256.83,704.34,257.19Zm-59.59-.91c.18.55.72.18,1.09.18a11.25,11.25,0,0,0,2.55-1.27.18.18,0,0,1,.18-.18.63.63,0,0,0-.18-.37l.37-.36a.59.59,0,0,0,.18-.37c0-.18-.18-.36-.37-.18a16.19,16.19,0,0,0-2.73.91c-.37,0-.73.18-.73.55C644.75,255.55,644.56,255.92,644.75,256.28Zm3.64-1.64v.18C648.21,254.64,648.39,254.64,648.39,254.64Zm.18-5.83c0,1.09.37,1.46,1.1,1.27a15.46,15.46,0,0,0,4-1.64,13.84,13.84,0,0,0,3.64-3.64,1.58,1.58,0,0,0,0-1.28.86.86,0,0,0-1.09-.18,9.11,9.11,0,0,0-4,1.82,17.74,17.74,0,0,1-2.37,1.64C648.94,247.35,648.39,247.9,648.57,248.81Zm.55-8.75a20,20,0,0,1,3.46-1.46,22.88,22.88,0,0,1,3.65-.73,1.64,1.64,0,0,1,.91-.18l.55-.36c0-.37-.37-.37-.55-.37-.55-.18-.18-.36,0-.36.18-.18.55-.18.36-.55,0-.18-.18-.18-.36-.36a7.76,7.76,0,0,0-3.46.54c-.19,0-.37.37-.37.55.55.55.37.73-.18.91C651.49,238.06,650,238.42,649.12,240.06Zm.18,26.43c2.92,1.27,5.83.36,8.75.54a36,36,0,0,0-4.19.73.72.72,0,0,0,.73.37,50.31,50.31,0,0,0,14.58-2.55c.18,0,.36-.19.54-.37.19,0,.19-.18,0-.36a.54.54,0,0,1-.36-.19h-.18l2.18-1.09c.37,0,.73,0,.37-.73a104.91,104.91,0,0,1-10.94,2.55C657.14,265.94,653.31,266.12,649.3,266.49Zm40.46-4a.84.84,0,0,0-1.09-.18c-1.46.54-3.1.91-4.38,1.45-4.19,1.83-8.38,3.1-12.57,4.56a64,64,0,0,1-18.59,2.92c-.73,0-1.64.18-2.55.18-.18,0-.37.18-.37.54a.66.66,0,0,0,.37.19,45.36,45.36,0,0,0,8.56.18,58.38,58.38,0,0,0,12.4-2.92c4.92-1.64,9.84-3.46,14.58-5.46A12.86,12.86,0,0,0,689.76,262.48Zm-31.89-21.33a5.07,5.07,0,0,0-3.65.55,2.92,2.92,0,0,0-2.18,2.37,10.45,10.45,0,0,1,5.28-2,.68.68,0,0,0,.55-.18.56.56,0,0,0,.18-.36A.67.67,0,0,0,657.87,241.15Zm-2.92,10s-.18-.18-.18,0c-.55,0-.91.54-1.28.91a.63.63,0,0,0-.36.18c-.37,0-.37.18-.18.18,0,.19.18,0,.18,0l.36-.36c.55-.18,1.1-.18,1.46-.73Zm2.92,3.83h-.18v.18Zm3.46,11.48h-.18l.18-.19.18.19Zm5.29-1.28,2.55-.55c-1.46.92-3.1,1.1-5.11,1.46A6.18,6.18,0,0,1,666.62,265.21Zm37.72-7.47c-.36,0-.73-.18-1.09-.18A2.32,2.32,0,0,1,704.34,257.74Z"/></g></g></svg>